<?xml version="1.0" encoding="UTF-8"?><svg id="Layer_1" xmlns="http://www.w3.org/2000/svg" viewBox="0 0 179.06 63"><defs><style>.cls-1{fill:#fff;}.cls-2{fill:#001158;}</style></defs><path class="cls-1" d="M27.11,.4C12.38,.4,.4,14.35,.4,31.5s11.98,31.1,26.71,31.1,26.71-13.95,26.71-31.1S41.83,.4,27.11,.4Z"/><path class="cls-2" d="M11.96,16.75c.31-.06,.7-.13,1.03-.22v2.19c0,.27,0,.29,.33,.32v.16h-1.33v-.16c.33-.03,.34-.05,.34-.32v-1.6c0-.17-.02-.2-.15-.21h-.22v-.16Zm26.61-.17c-.03,.18-.05,.39-.1,.77h.19c.09-.24,.11-.26,.39-.26h.86c-.37,.69-.81,1.4-1.27,2.1l.03,.06,.6-.05c.35-.85,.73-1.72,1.15-2.56l-.05-.06h-1.8Zm2.29,0l-.17,1.37c.13-.04,.27-.07,.42-.07,.3-.01,.56,.22,.57,.53,0,.03,0,.06,0,.09,0,.34-.12,.49-.3,.49s-.42-.22-.52-.3c-.05-.04-.12-.04-.16,0-.07,.05-.13,.13-.15,.21-.02,.07,0,.14,.06,.18,.17,.1,.36,.16,.56,.16,.26-.02,.51-.11,.72-.26,.26-.16,.42-.45,.42-.75-.02-.43-.39-.76-.82-.73-.02,0-.03,0-.05,0-.17,0-.33,.05-.48,.12l.09-.57h1.07l.08-.48h-1.33Zm-26.82,0l-.17,1.37c.14-.04,.28-.06,.42-.07,.3-.01,.56,.22,.57,.52,0,.03,0,.06,0,.09,0,.34-.12,.49-.3,.49s-.42-.22-.52-.3c-.05-.04-.12-.04-.16,0-.07,.05-.13,.13-.15,.21-.02,.07,0,.14,.06,.18,.17,.1,.36,.16,.56,.16,.26-.02,.51-.11,.72-.26,.26-.16,.42-.45,.42-.75-.02-.43-.39-.76-.82-.73-.02,0-.03,0-.05,0-.17,0-.33,.05-.48,.12l.09-.57h1.07l.08-.48h-1.33Zm39.78,14.92c0,17.15-11.98,31.1-26.71,31.1S.4,48.65,.4,31.5,12.38,.4,27.11,.4s26.71,13.95,26.71,31.1Zm.4,0C54.22,14.13,42.06,0,27.11,0,12.16,0,0,14.13,0,31.5s12.16,31.5,27.11,31.5c14.95,0,27.11-14.13,27.11-31.5ZM26.17,12.51c.09,.13,.26,.19,.42,.16,.17-.05,.31-.17,.38-.33-.11,0-.23,0-.34,.02-.09,.01-.08,.1-.19,.07-.11-.04-.16,.01-.27,.08m.09-.58c-.09,0-.16,.1-.08,.16,.06,.04,.06-.09,.17-.03,.05,.03,.12,.02,.17-.01,.04-.04,.11-.05,.17-.03,.06,.02,.12-.14-.02-.15-.06,0-.13,0-.18,.05-.07,.05-.05,.03-.12,.02-.03,0-.07-.01-.11,0m.45-.87h0Zm.69-.36c-.29,.01-.58,.09-.84,.23-.04,.04-.03,.1,0,.14s.1,.03,.14,0h0s-.03,.01,.05-.04c0,.02,0,.03,0,.05,.01,.1,.1,.17,.2,.16,.1-.01,.17-.1,.16-.2,0-.05-.04-.1-.09-.13,.12-.04,.25-.06,.38-.06,.05,0,.1-.02,.1-.08,0-.05-.05-.06-.1-.05m-1.17-.05c.48-.31,1.04-.48,1.61-.49,.31-.04,.6,.14,.69,.44,.21-.21,.08-.77-.63-.76-.65-.02-1.28,.28-1.67,.8m.8,15.2c-1.19-.15-1.32-.93-1.32-1.27,0-.28,.28-.15-.22-.42-.52-.31-1.16-.36-1.72-.14l.13,.12c.41-.03,.81,.09,1.14,.34-.15,2.09,1.28,1.96,1.28,1.96,.2,.33,.56,.55,.94,.57,.12-.04,.26-.09,.44-.14-.39-.2-.64-.58-.67-1.02m3.45,.37s.57-.18,.58-.21c.04-.22,.19-.41,.4-.49,.09-.03,.15-.1,.16-.19,.06-.25-.02-.5-.21-.67-.4-.54-.66-1.17-.75-1.83-.04-.12-.1,.02-.1,.02,0,0,.37,1.85-.29,1.93,.06,.52-.3,1-.82,1.09-.1,.02-.16,.08-.16,.16-.02,.17-.07,.34-.16,.49,.46-.1,.93-.17,1.4-.19-.02-.03-.03-.07-.05-.1m.08-4.18c.22-.08,.45-.12,.68-.12,.22,0,.42,.1,.55,.27l.13,.39s.39,.19,.53,0c.12-.17,.06-.35-.1-.54-.21-.3-.58-.46-.95-.41-.32,.01-.62,.12-.87,.32l.03,.09m-9.11-2.64c-.53,.56-.76,1.34-.63,2.1,.05,1.42,.75,1.57,1.35,.83,.46-.58,.65-1.21,.55-1.18-.32,.1-.9,.15-1.15-.17-.26-.47-.24-1.05,.05-1.5l-.17-.08m8.54,23.21c-.74-.54-1.37-1.21-1.86-1.97-1.4-2.25-1.6-4.14-1.59-9.29,0-.21,0-.4,0-.6l-.75-.07s-.16,5.41-.16,6c0,.82,.23,1.58,.36,.05,.06-.76-.11-3.2,.09-3.2,.28,0,.34,9.21,.04,9.21-.56-.07-1.13-.1-1.69-.1-.37-.28-.85-.38-1.3-.27,.19,.14,.4,.25,.62,.33l-9.76,2.53-.59-.35-4,1.68,4.44-.43,.24-.67,9.92-2.64c.43,.19,.87,.37,.89,.4,.12,.11,1.36-.09,1.32,.4-.02,.26-.36,.46-.72,.61-.34,.14-.82,.01-.8,.09,.36,.16,.76,.2,1.14,.1,.68-.23,1.31-.59,1.86-1.06,0,0,2.14-.15,2.43-.59-.04-.04-.08-.08-.12-.13m-16.39,3.12l-2.64,.41,2.77-.76-.13,.36Zm.74-17.04s1.26,.19,1.35-.51c.04-.34-.17-.45-.35-.42-.16,.03-.3,.16-.15,.39,.08,.13,.24,.37-.84,.54m-1.04-.62c-.01,.08,.04,.15,.12,.17s.15-.04,.17-.12c0-.01,0-.03,0-.04,0-.03,0-.06-.02-.09h.11s.07-.03,.07-.07c0-.04-.04-.07-.08-.07l-.52,.02s-.07,.01-.07,.05c0,.04,.03,.04,.07,.04h.17s-.03,.08-.03,.11m3.83,4.98c.23-.26,.63-.29,.89-.06,.06,.05,.11,.12,.15,.19-.21-.02-.41,0-.61,.07,0,0,.63,.22,.48,.61-.13-.16-.31-.26-.51-.29,0,0,.17,.58-.17,.73,0,0-.07-.51-.41-.5-.2,.01-.34,.19-.33,.38v.03s-.2-.12-.2-.55c.02-.13-.07-.25-.2-.27-.71-.18-1.34-.58-1.81-1.14-.43,.22-.9,.36-1.38,.41,0,0-.17,.2,.1,.22,.73-.01,1.42,.36,1.82,.97,.1,.15,.29,.29,.78,.29,0,0,0,.56-.97,.58,0,0,.59,.43,.98,.77,.16,.14,.24,.05,.35-.04,.13-.1,.84-.57,1.08,.14,0,0-.41-.08-.57,.03,.22,.21,.34,.51,.32,.82,0,0-.27-.36-.5-.26-.11,.05,.19,.41-.2,.58,0,0,.05-.5-.43-.49,0,0,.07,.32-.34,.38,0,0,.24-.63-.19-.75-.12-.03-2.03-.25-2.28-1.05,.17-.08,.35-.15,.53-.21,0,0-1.11-.8-1.28-1.37,0,0-.23-.06-.14,.07,.08,.12,.31,.27,.19,1.4-.05,.32,.12,.63,.41,.77-.48,.13-.99-.06-1.26-.48,0,0-.03,1.51,.83,1.55,.34,.02,1.02,.03,1,.89,0,0-.35-.41-.6-.33,0,0,.24,.29,.14,.55,0,0-.32-.41-.49-.34,0,0,.13,.29,.02,.46,0,0-.28-.64-.43-.62-.15,.02-.3,.3-.27,.59-.18-.03-.31-.2-.28-.38,0-.06,.03-.11,.06-.15,.1-.19,.18-.16,.26-.27,.07-.1-2.2-.94-1.91-2.61,0,0,.36,.32,.63,.07,.22-.21,.1-.75-.37-1.14,0,0,.42-.16,.6-.22,.14-.05,.06-.24,.13-.4-.35,.03-.7-.09-.96-.32-.22-.27-.28-.63-.17-.95,.2-.52,.49-1,.85-1.43,.1-.13,.19-.26,.26-.36,.19-.27,.42-.81,.26-1.09-.09-.14-.25-.22-.42-.22-.08,0-.16,0-.24,.02,.17,.35-.12,.84-.53,1.1-.65,.4-.55,.88-.55,.88-.13-.56-.16-1.13-.08-1.7,.13-.52,.56-1.1,1.05-.63,0,0,.24-.02,.33-.02,.3-.01,.58,.14,.74,.39,.33,.56-.24,1.42-.27,1.46-.07,.1-.17,.23-.26,.37-.33,.39-.59,.83-.79,1.3-.07,.29-.06,.53,.09,.65,.24,.17,.53,.24,.82,.2,.47-.42,1-.76,1.57-1.02,.27-.09,.3-.36,.1-.32-.17,.04-1.01,.16-1.28-.34,0,0,.94-.26,.99-.76-.26,.19-.6,.21-.88,.06,0,0,.78-.56,.61-1.06-.06-.17-.21-.78,0-.93,.08-.06-.19-.27-.35-.26,.2-.2,.53-.21,.73,0,.04,.04,.16,.03,.24,0,.21-.08,.42-.14,.64-.17,.23,0,.35-.12,.61,.22,.14,.07,.28,.14,.42,.19,.1,.03,.07,.17,.05,.37,0,.09-.06,.06-.6,.16-.15,.03-.36,.62-.27,.63,.1,.02,.65-.21,.76-.16,.11,.09,.13,.26,.05,.38-.06,.09-.21,.02-.37,.05-.2,.05-.44,.26-.09,.57,.2,.17,.87,.44,1.45-.67,.14,.24,.19,.53,.14,.8l1.48-1.23s-.14-.82,.48-1.13c0,0-.2,.35-.12,.54,.18-.16,.41-.26,.65-.3,0,0-.41,.47-.39,.55,0,0,.56-.16,.7-.04,0,0-.58,.26-.58,.41,0,.14,.41,.17,.6,.12,0,0-.09,.41-.77,.34-.42,.58-.94,1.08-1.53,1.49-.24,.15,.04,.5,.56,.32,.17-.07,.33-.18,.44-.32,0,0,.48,1.02-1.14,1.08,.39,.38,.76,.79,1.11,1.21,.14,.2,.22,.03,.27-.07m26.55,4.54c-.02,.08-.03,.19-.1,.21-.08,.02-.15,.05-.21,.1-.09,.07-.07,.11,.05,.11,.21,0,.42-.32,.43-.38,.02-.07,.19-.17,.26-.2,.1-.05,0-.16,0-.16l-.19-.04c.03-.12,0-.25-.06-.35,.28,.02,.55-.05,.79-.2,.05-.06,.18-.16,.17-.23-.02-.08-.05-.14-.11-.2-.22-.09-.47-.1-.7-.03-.38,.13-.58-.02-.63-.08-.02-.03-.01-.08,.02-.14,.07,.06,.25,0,.34-.03,.12-.05,.14-.2,.02-.23-.34-.08-.42,.13-.42,.13-.09,.16-.11,.27-.05,.34,.21,.17,.5,.21,.75,.11,.2-.06,.42-.05,.61,.03,.03,.02,0,.15,0,.15,0,.04-.06,.08-.09,.11-.13,.16-.65,.17-.85,.17-.26-.07-.54,0-.75,.16-.16,.12-.27,.16-.36,.12-.17-.08,.2-.45,.25-.51,.06-.07,.04-.13-.06-.1-.35,.12-.37-.1-.42-.17-.06-.1-.07-.04-.11,.02-.06,.09,.08,.52-.25,.6-.33,.09-.67-.08-.8-.39l-.1,.03c.06,.2,.21,.37,.4,.46,.16,.09,.15,.14,.16,.21l.15,.14s-.13,.28-.13,.28c-.02,.11-.42,.45-.42,.45-.12,0-.37,.07-.32,.13,.14,.19,.46,.02,.46,.02,.19-.24,.42-.45,.67-.63,0,0,.6-.17,.78-.24,.16-.07,.12,.03,.12,.03-.12,.2-.24,.4-.33,.62-.17,.03-.37,.16-.3,.22,.16,.14,.41-.12,.41-.12-.03-.06,.15-.26,.15-.26l.25-.55,.25-.11c.03,.12,.11,.21,.22,.27,.16,.08,.03,.14,.03,.14m.27-9.83l.2-.41-.49,.24-.05-.38-.26,.31-.33-.35v.4l.92,.19Zm-6.48,.19c-.54-.08-.46-.2-.42-.26,.07-.12,0-.19-.08-.2-.09-.01-.19,.04-.18,.21,.04,.35,.67,.25,.67,.25m-.93-1.14h-.25v.53h.25v-.53Zm2.95,.05h-.25v.52h.25v-.52Zm-3.6,2.01h-.25v.52h.25v-.52Zm-.22,2.62h-.25v.52h.25v-.52Zm1.82,.66h-.25v.53h.25v-.53Zm-6.09,.51c.03-.13,.02-.42-.22-.44-.2-.01-.43,.03-.46,1.14,.2-.04,.4-.05,.61-.02,.01-.23,.04-.46,.08-.69m.37-4.68c-.25-.01-.42,.22-.47,.57-.06,.39-.1,.71-.12,.91,.06,0,.13,0,.19,.02,.1-.37,.3-.7,.56-.97,0-.02,0-.03,0-.05,.04-.33-.06-.47-.16-.48m-1.2,1.53c.05-.01,.1-.02,.15-.03,.02-.35-.01-.69-.08-1.04-.09-.39-.26-.51-.41-.54-.12,.12-.28,.06-.46,.37,.33,.36,.59,.78,.76,1.24h.03m2.9,1.96c0-.41,0-.81,0-1.22-.05,.18-.11,.36-.19,.56,.05,.2,.11,.42,.18,.66m-2.19,4.34s.06,.06,.07,.1c.04,.05,.07,.1,.1,.16,.14,.55,.14,1.12,.02,1.68,.37-.58,.49-1.28,.31-1.95-.05-.13-.12-.25-.2-.36,0,0-.35,.33-.3,.37m.73-4.86c.16-.33,.08-.72-.21-.95,0-.06-.02-.13-.02-.19,.07-.46,.35-.86,.75-1.08,.11-.05,.27-.12,.36-.02,.19,.32,.24,.71,.14,1.07-.04-.14-.09-.28-.15-.42-.08-.18-.29-.26-.47-.18-.18,.08-.26,.29-.19,.47,.27,.71,.51,1.42,.71,2.15l.13,.44c.1,1.06-.09,2.12-.55,3.07-.46,1.43-.66,2.94-.57,4.44,.21-1.53,.58-3.03,1.09-4.49,.14-.31,.26-.63,.37-.95-.06,2.14-.35,4.28-.86,6.36-.17,.64-.47,1.25-.87,1.78-.15,.21-.32,.4-.51,.57l-.04-.02h-.01s-.03-.03-.05-.04h0c-.7-.46-1.34-1.01-1.87-1.65-.27-.32-.51-.66-.72-1.02-.97-1.68-1.26-2.98-1.36-5.91-.02-.64-.04-1.35-.05-2.16,0-.27,0-.55,0-.85-.04-1.27,.03-2.53,.21-3.79,.58-.2,1.18-.35,1.78-.47,.72-.17,1.45-.23,2.19-.17-.03,.06-.02,.13,.02,.17,.08,.1,.18,.19,.3,.25-.2,.11-.38,.27-.52,.46-.12-.27-.36-.48-.64-.56-.39-.09-.8,0-1.11,.63-.37-.17-.8-.13-1.14,.09-.51,.42-.64,1.54,.15,2.99-.07,.21-.14,.41-.19,.58-.63,2.12,.27,3.29,.86,4.44,.51,1.25,.94,2.54,1.3,3.84,.01-1.43-.25-2.84-.76-4.17-.43-.88-1.26-2.24-.77-3.77,.19-.6,.53-1.36,.68-2.07,.02-.41-.5-.87-.66-.37-.04,.21-.11,.43-.17,.66-.34-.79-.39-1.42-.12-1.63,.23-.11,.5-.09,.71,.04,.33,.28,.58,.65,.71,1.06h0c.09,.29,.08,.59-.01,.88-.15,.51-.35,.72-.02,1.02,.17,.13,.35,.24,.55,.33,0,0-1.03,2.18,.5,2.43,.33,.05,.71-.08,.71-.33-.06-.38,0-.78,.19-1.12,.1-.19,.43-.84,.28-1.1-.07-.19-.11-.39-.1-.6m-1.03,4.84c.13-.2,.52-.66,.52-.66,.47-.49,.87-.67,1.05-1.3,.17-.59,.17-.64,.32-1.26,.16-.66-.27-1.38-.43-.84-.19,.63-.17,1.35-.35,1.86-.16,.44-.46,.82-.84,1.1-.05,.05-.09,.11-.14,.16-.04-.03-.09-.05-.14-.08-.9-.4-1.25-.58-1.39-1.42-.15-.95,.11-1.06-.26-1.98-.09-.15-.24,.15-.32,.37-.04,.16-.05,.33-.03,.49,0,.56,.04,1.11,.14,1.66,.27,.77,.84,1.03,1.67,1.39-.15,.23-.26,.49-.32,.76-.04,.59,.11,1.17,.45,1.66-.2-.62-.17-1.3,.08-1.9m2.37-7.62s.04,.04,.05,.07c-.01-.08-.02-.16-.03-.23-.09-.3-.28-.56-.56-.73-.16,.09-.34,.14-.52,.12,.12,.19,.2,.4,.23,.62,.28-.09,.59-.04,.82,.15m-2.49,2.85c0-.07-.02-.14-.06-.2,.08-.04,.16-.09,.23-.15,.03-.03,.04-.08,.01-.12-.02-.03-.07-.04-.1-.02h0c-.24,.17-.52,.28-.8,.33-.04,.01-.07,.05-.06,.1,0,.04,.04,.08,.09,.07h0c.14-.03,.28-.07,.42-.11-.01,.03-.02,.07-.02,.11,0,.14,.07,.25,.15,.25s.15-.11,.15-.25m1.2-.23c-.24-.06-.47-.15-.7-.25-.04-.02-.08,0-.1,.03h0c-.02,.05,0,.1,.04,.12,.07,.04,.14,.07,.22,.09-.07,.05-.1,.13-.1,.21,0,.12,.06,.23,.14,.23s.14-.1,.14-.23c0-.05-.01-.11-.04-.15,.12,.04,.23,.08,.35,.11m-.8,1.1c-.2-.01-.43,.03-.46,1.14,.2-.04,.4-.05,.61-.02,.01-.23,.04-.46,.08-.69,.03-.13,.02-.42-.22-.44m-.06-.46s-.07-.02-.1-.02c-.09,0-.17,.08-.1,.16,.05,.06,.07-.09,.17,0,.05,.04,.11,.04,.16,.01,.05-.04,.12-.04,.17,0,.06,.04,.13-.13,0-.17-.06-.02-.13-.01-.19,.02-.08,.05-.06,.02-.12,0m-14.35,10.46h.04s-.02,0-.04,0m-6.53,0h.03s-.02,0-.03,0m11.57,10.73c0,2.92,2.35,5.3,5.28,5.31,2.92,0,5.3-2.35,5.31-5.28,0,0,0-.02,0-.03v-7.3h-10.58v7.3m22.77-5.77c-3.38,5.41-8.46,9.21-14.28,10.24-1.92,1.39-4.51,1.38-6.42,0-5.8-1.04-10.86-4.83-14.23-10.23h11.95v-1.73h10.99v1.73h11.99m-13.87,5.99c.04-.21,.07-.73-.41-.82-.59-.12-.91,.61-.92,.64-.04,.07-.11,.13-.19,.15-.07,0-.82,.13-.85,.73-.03,.49,.48,.59,.69,.6,.27,.02,.54-.02,.79-.12,.12-.04,.27-.03,.41-.06,.06-.12,.09-.28,.16-.38,.16-.22,.27-.47,.32-.74m.4,1.08c.14,.03,.22,.16,.2,.3-.03,.14-.16,.22-.3,.2-.15-.03-.31-.05-.46-.04-.05,.15-.07,.31-.08,.46,0,.14-.12,.24-.26,.24-.14,0-.24-.12-.24-.26h0c0-.11,.02-.22,.04-.32-.01,0-.03,0-.04,.01-.31,.12-.65,.17-.98,.14-.73-.06-1.18-.5-1.15-1.13,.05-.51,.42-.93,.92-1.05l-1.72-2.21-1.72,2.21c.5,.12,.87,.54,.92,1.05,.03,.62-.42,1.07-1.15,1.13-.33,.02-.67-.02-.98-.14-.01,0-.03,0-.04-.01,.02,.11,.03,.21,.04,.32,0,.14-.1,.26-.24,.26-.14,0-.25-.1-.26-.24,0-.16-.03-.31-.08-.46-.16,0-.31,0-.47,.04-.14,.03-.27-.06-.29-.2-.03-.14,.06-.27,.2-.29h0c.11-.02,.21-.03,.32-.04,0-.01-.01-.02-.02-.04-.19-.28-.32-.59-.38-.92-.18-.58,.14-1.19,.71-1.37,.03,0,.06-.02,.09-.02,.51-.09,1.02,.17,1.24,.63l1.8-2.32-1.04-1.34h0l-1.79,1.39-.35-.45,.89-.7-.35-.45-.89,.7-.69-.9,.45-.35,.35,.45,.45-.35-.35-.45,.45-.35,.69,.89,.45-.35-.69-.9,.39-.31,2.35,3.03,2.36-3.03,.39,.31-.69,.9,.45,.35,.69-.89,.45,.35-.35,.45,.45,.35,.35-.45,.45,.35-.7,.9-.89-.7-.35,.45,.89,.7-.35,.45-1.79-1.39h0l-1.04,1.34,1.8,2.32c.23-.46,.74-.72,1.24-.63,.59,.13,.96,.72,.83,1.31,0,.03-.01,.06-.02,.09-.06,.33-.19,.64-.38,.92,0,.01-.01,.02-.02,.04,.11,0,.21,.02,.32,.04m-5.37-.38c-.03-.6-.78-.73-.85-.73-.08-.02-.15-.08-.19-.15-.01-.03-.34-.76-.92-.64-.48,.1-.45,.61-.41,.82,.05,.27,.16,.52,.32,.74,.07,.11,.1,.26,.16,.38,.14,.03,.29,.02,.41,.06,.25,.1,.52,.14,.79,.12,.22-.02,.72-.12,.69-.6m-1.86,6.25c-.09-.06-.19-.1-.29-.12-.17-.03-.59,0-.69,.59-.07,.3,.12,.6,.42,.67,.02,0,.05,0,.07,.01,.27,.05,.28,.04,.31-.18l.17-.98Zm.12-.72c.08-.47,.05-.51-.4-.61l.03-.18,1.59,.27-.03,.18c-.4-.04-.45-.02-.52,.45l-.25,1.45c-.08,.47-.05,.51,.32,.59l-.03,.18-1.58-.27c-.64-.11-1.03-.45-.94-1.01,.09-.54,.57-.75,1.11-.74,.1,0,.19,.02,.29,.03l.32,.15,.08-.5Zm-3.79-.2l-.2-.07c-.13-.06-.28-.08-.43-.06-.21,.05-.37,.21-.43,.41-.13,.29,0,.62,.29,.75,.03,.01,.05,.02,.08,.03,.25,.09,.27,.09,.33-.08l.36-.98Zm.25-.69c.16-.45,.14-.49-.23-.65l.06-.17,1.45,.53-.06,.17c-.39-.12-.44-.1-.6,.35l-.51,1.38c-.17,.45-.14,.49,.22,.65l-.06,.17-1.52-.56c-.24-.07-.46-.21-.64-.39-.15-.2-.18-.46-.09-.69,.14-.34,.49-.53,.84-.48-.02-.16-.11-.52-.17-.75-.04-.18-.1-.36-.19-.53-.06-.11-.14-.21-.24-.29l.08-.15,.24,.09c.54,.21,.65,.42,.73,.7,.07,.25,.12,.61,.16,.82,.03,.16,.07,.2,.25,.26l.1,.04,.18-.49Zm-3.6-1.11l-.63-.37-.16,.97h.02l.77-.61Zm-.14-1.24l-.11-.05c-.17-.07-.22-.05-.27,.25l-.06,.41,.77,.45c.06-.05,.23-.19,.37-.32,.15-.14,.14-.2,0-.31l-.12-.09,.09-.16,1.01,.6-.09,.16c-.25-.11-.36-.16-.73,.12l-1.99,1.47-.23-.08,.37-2.57c.08-.25-.04-.51-.28-.62l.09-.16,1.27,.75-.09,.16Zm-2.51-1.05c.31-.37,.35-.38,.71-.11l.12-.14-1.94-1.62c-.11,.07-.5,.39-.63,.5l.14,.14c.13-.1,.29-.17,.45-.2,.19,.02,.37,.1,.51,.24,.13,.09,.23,.2,.31,.33,.04,.1-.03,.23-.19,.42l-.41,.5-.33-.27c-.29-.24-.29-.26-.12-.55l-.15-.12-.62,.75,.15,.12c.25-.22,.28-.24,.57,0l.33,.28-.56,.67c-.1,.13-.11,.12-.25,0l-.19-.16c-.24-.2-.32-.33-.33-.41,0-.16,.06-.31,.15-.45l-.15-.11c-.19,.27-.37,.52-.45,.62l1.82,1.51,.12-.14c-.29-.27-.3-.31,0-.68l.93-1.13Zm-2.57-1.97c.19-.25,.43-.56,.47-.65-.06-.29-.19-.57-.4-.78-.48-.52-1.08-.65-1.5-.27-.32,.35-.36,.87-.1,1.27l.07,.16c.13,.2,.11,.47-.05,.65-.17,.16-.45,.15-.6-.03v-.02c-.22-.28-.21-.67,0-.94l-.15-.13c-.21,.25-.36,.43-.47,.56,.1,.21,.22,.41,.37,.6,.5,.55,1.06,.59,1.46,.23,.32-.3,.22-.75,.07-1.12l-.07-.17c-.14-.25-.09-.56,.11-.76,.19-.16,.47-.13,.63,.06l.02,.03c.23,.36,.23,.82,0,1.18l.15,.14Zm-3.76-2.57c-.39,.29-.43,.27-.69-.04l-.15,.11,.93,1.27,.15-.11c-.22-.34-.22-.39,.17-.67l1.18-.87c.38-.28,.43-.27,.69,.04l.15-.11-.93-1.27-.15,.11c.22,.34,.21,.39-.17,.67l-1.19,.87Zm-.26-3.12c.32-.18,.39-.28,.24-.55-.27-.52-.9-.71-1.42-.45-.06,.03-.12,.07-.18,.12-.73,.4-.86,.93-.53,1.53,.1,.18,.15,.24,.19,.25,.04,0,.11-.02,.22-.08l1.48-.83Zm-2.13,.67c-.26-.4-.37-.89-.31-1.36,.09-.34,.31-.63,.63-.8,.96-.54,1.8,0,2.31,.92l.68,1.22-.16,.09c-.22-.35-.27-.37-.69-.14l-1.28,.71c-.42,.23-.42,.28-.26,.62l-.16,.09-.75-1.35Zm-1.15-4.08c-.45,.18-.48,.15-.66-.21l-.17,.07,.59,1.45,.17-.07c-.13-.38-.12-.43,.32-.62l1.36-.56c.44-.18,.48-.16,.66,.21l.17-.07-.59-1.45-.17,.07c.13,.38,.11,.43-.32,.61l-1.36,.56Zm-1.25-1.22l.17-.05c-.09-.41-.07-.45,.39-.58l.94-.27c.38-.06,.7-.29,.89-.62,.1-.3,.1-.63,0-.92-.08-.34-.29-.63-.58-.82-.36-.16-.76-.17-1.13-.03l-.33,.1c-.26,.08-.52,.14-.79,.17-.16,.02-.27-.09-.34-.33l-.18,.05,.35,1.22,.18-.05c-.07-.29-.05-.45,.09-.52,.24-.11,.5-.2,.76-.27l.28-.08c.66-.19,1.18-.11,1.33,.43,.14,.5-.2,.86-.88,1.05l-.79,.23c-.46,.13-.5,.1-.64-.27l-.17,.05,.43,1.51Zm-1.61-7.42l2.01,.6-1.78,1.16,.14,1.08,.18-.02c-.03-.45-.03-.49,.51-.52l.96-.07c.25-.02,.5-.03,.74-.02,.17,.02,.26,.1,.31,.36l.18-.02-.16-1.21-.18,.03c.02,.32-.02,.45-.19,.49-.27,.05-.54,.09-.82,.11l-.97,.09h0l2.04-1.26-.02-.17-2.47-.74v-.02l1.71-.26c.44-.06,.46-.04,.55,.4l.18-.02-.21-1.59-.18,.02c.04,.46,.02,.47-.42,.54l-1.54,.25c-.43,.07-.46,.05-.54-.4l-.18,.03,.16,1.18Zm1.1-3.92c-.39,.02-.7,.35-.68,.74,.02,.39,.35,.7,.74,.68,.39-.02,.69-.34,.69-.73-.01-.4-.34-.71-.74-.7h0m.48-2l.05-.73-.95,.29v.02l.89,.42Zm1.05-.67v-.12c0-.18-.05-.22-.34-.13l-.4,.13-.07,.89c.07,.03,.27,.12,.46,.19,.19,.07,.24,.04,.28-.14l.02-.15h.18l-.09,1.19h-.18c-.01-.29-.02-.41-.43-.62l-2.19-1.14-.03-.24,2.46-.8c.37-.12,.39-.25,.44-.52h.18l-.11,1.49-.18-.02Zm-1.15-4.96c-.33-.01-.55-.03-.8-.06-.14,.29-.24,.59-.3,.9-.26,.87,.23,1.8,1.1,2.06,.04,.01,.07,.02,.11,.03,.83,.14,1.61-.42,1.75-1.24,.01-.07,.02-.13,.02-.2,.05-.32,.06-.65,.04-.98-.26-.15-.52-.28-.79-.39l-.05,.19c.45,.33,.66,.63,.58,1.05-.11,.6-.7,.95-1.52,.8-.7-.13-1.15-.58-1.03-1.24,.05-.43,.43-.74,.86-.72v-.19Zm1.32-1.49l.21-.7-.99,.07v.02l.77,.61Zm1.17-.42l.02-.12c.03-.18,0-.23-.3-.2l-.42,.04-.26,.85c.06,.05,.24,.18,.4,.29,.17,.11,.23,.09,.3-.08l.06-.14,.17,.06-.34,1.13-.17-.05c.05-.27,.07-.39-.29-.69l-1.88-1.59,.02-.25,2.58-.24c.26,.02,.49-.16,.54-.41l.17,.05-.43,1.41-.17-.05Zm.6-3.17c.34,.15,.45,.15,.58-.14,.29-.64,0-1.17-.69-1.48-.76-.34-1.26-.13-1.54,.49-.08,.19-.1,.26-.09,.3,.02,.04,.08,.08,.19,.13l1.55,.7Zm-1.81-1.31c.16-.45,.48-.83,.9-1.06,.33-.14,.7-.13,1.02,.02,1.01,.45,1.08,1.44,.64,2.4l-.57,1.28-.17-.07c.15-.39,.13-.44-.3-.63l-1.34-.6c-.44-.2-.48-.18-.66,.16l-.17-.07,.64-1.41Zm3.23-1.6c.41,.25,.42,.29,.22,.69l.16,.09,1.31-2.17c-.08-.1-.46-.44-.58-.55l-.12,.16c.12,.12,.21,.26,.26,.42,.01,.19-.05,.38-.16,.54-.07,.14-.17,.26-.29,.36-.09,.05-.23,0-.45-.13l-.55-.33,.22-.37c.19-.32,.22-.32,.53-.2l.1-.16-.83-.5-.1,.16c.26,.22,.27,.24,.08,.57l-.22,.37-.74-.45c-.14-.08-.14-.09-.04-.25l.13-.21c.16-.27,.28-.36,.36-.38,.16-.02,.32,0,.46,.08l.09-.17c-.3-.15-.57-.29-.68-.35l-1.22,2.03,.16,.1c.22-.33,.27-.34,.68-.09l1.25,.76Zm0,0c.41,.25,.42,.29,.22,.69l.16,.09,1.31-2.17c-.08-.1-.46-.44-.58-.55l-.12,.16c.12,.12,.21,.26,.26,.42,.01,.19-.05,.38-.16,.54-.07,.14-.17,.26-.29,.36-.09,.05-.23,0-.45-.13l-.55-.33,.22-.37c.19-.32,.22-.32,.53-.2l.1-.16-.83-.5-.1,.16c.26,.22,.27,.24,.08,.57l-.22,.37-.74-.45c-.14-.08-.14-.09-.04-.25l.13-.21c.16-.27,.28-.36,.36-.38,.16-.02,.32,0,.46,.08l.09-.17c-.3-.15-.57-.29-.68-.35l-1.22,2.03,.16,.1c.22-.33,.27-.34,.68-.09l1.25,.76Zm1.72-6.16l.92,1.89-2.05-.53-.7,.84,.14,.12c.31-.33,.34-.35,.73,.03l.7,.67c.19,.17,.36,.34,.52,.53,.1,.14,.1,.26-.06,.47l.14,.11,.78-.94-.14-.12c-.22,.23-.35,.29-.49,.19-.22-.16-.44-.34-.63-.53l-.72-.65h0l2.29,.65,.11-.13-1.12-2.32v-.02l1.36,1.09c.34,.28,.34,.31,.07,.67l.14,.12,1.03-1.23-.14-.12c-.31,.33-.33,.33-.68,.06l-1.22-.97c-.35-.27-.35-.3-.08-.67l-.14-.12-.76,.91Zm2.88-1.85c-.32-.36-.31-.4-.03-.69l-.12-.14-1.16,1.05,.12,.13c.32-.25,.36-.26,.69,.1l.98,1.09c.32,.35,.31,.4,.03,.69l.12,.13,1.16-1.05-.12-.14c-.32,.25-.37,.25-.69-.1l-.98-1.09Zm2.38-.63l.6-.42-.82-.55h-.02l.24,.97Zm1.18,.39l.09-.08c.14-.12,.14-.18-.11-.34l-.35-.23-.73,.51c.02,.07,.08,.29,.14,.48,.06,.19,.13,.21,.29,.12l.13-.07,.1,.15-.96,.67-.1-.15c.21-.18,.29-.26,.2-.72l-.5-2.42,.17-.18,2.17,1.41c.19,.18,.48,.18,.68,0l.1,.15-1.21,.84-.1-.15Zm2.28-2.95c-.18-.35-.61-.5-.96-.32-.35,.19-.48,.63-.3,.98,.17,.35,.6,.5,.95,.32,.35-.17,.5-.6,.32-.95v-.03m4.01,.15c-.02-.18-.08-.63-.12-.86l-.19,.05c.01,.19-.01,.38-.07,.56-.05,.13-.2,.21-.44,.29-.12,.05-.26,.08-.39,.06-.1-.02-.18-.14-.26-.38l-.47-1.37c-.16-.46-.13-.49,.28-.66l-.06-.17-1.51,.52,.06,.17c.39-.11,.43-.1,.59,.36l.47,1.39c.16,.45,.14,.5-.27,.67l.06,.17,2.32-.8Zm-.14-2.99l.03,.18c.41-.04,.45-.01,.53,.46l.16,.97c.01,.38,.2,.74,.51,.96,.29,.13,.61,.17,.92,.1,.34-.04,.66-.21,.87-.48,.2-.34,.25-.74,.16-1.12l-.06-.34c-.05-.27-.08-.53-.08-.81,0-.16,.12-.25,.37-.3l-.03-.18-1.25,.21,.03,.18c.3-.04,.45,0,.5,.15,.08,.26,.15,.52,.18,.79l.05,.29c.11,.68-.03,1.19-.58,1.28-.51,.09-.83-.3-.94-1l-.13-.81c-.08-.48-.05-.51,.34-.6l-.03-.18-1.55,.26Zm7.12,.33c-.03-.41-.05-.67-.06-.82-.31-.09-.62-.14-.94-.16-.91-.13-1.75,.49-1.88,1.4,0,.04-.01,.08-.01,.12-.02,.9,.7,1.51,1.8,1.53,.37,0,.74-.06,1.1-.16-.03-.13-.04-.27-.03-.4v-.31c.01-.32,.05-.33,.29-.36v-.18l-1.5-.03v.18c.52,.04,.54,.08,.53,.38v.38c-.01,.25-.21,.28-.35,.28-.77-.02-1.09-.69-1.07-1.37,.02-.85,.49-1.23,1.03-1.22,.45-.03,.85,.3,.9,.75h.2Zm2.1,1.65c-.08,.36-.05,.47,.25,.54,.68,.15,1.15-.24,1.31-.97,.18-.81-.13-1.26-.79-1.41-.2-.05-.28-.05-.31-.03-.03,.02-.06,.09-.09,.21l-.37,1.66Zm.92-2.04c.47,.07,.91,.31,1.22,.67,.2,.29,.27,.66,.18,1-.24,1.08-1.19,1.35-2.22,1.12l-1.36-.31,.04-.18c.41,.07,.46,.04,.56-.42l.32-1.44c.1-.47,.07-.5-.29-.61l.04-.18,1.51,.34Zm2.59,.67l-.07,.17c.37,.19,.39,.23,.2,.67l-.39,.9c-.19,.33-.22,.73-.08,1.09,.17,.27,.42,.47,.72,.58,.31,.15,.67,.18,1,.07,.35-.18,.62-.48,.74-.86l.14-.32c.1-.25,.22-.49,.36-.72,.09-.13,.24-.14,.47-.05l.07-.17-1.16-.5-.07,.17c.27,.13,.38,.25,.34,.4-.07,.26-.16,.52-.27,.76l-.11,.27c-.27,.63-.66,.98-1.18,.76-.48-.21-.54-.7-.25-1.35l.32-.75c.19-.44,.24-.46,.61-.33l.07-.17-1.44-.62Zm5.78,4.53c.15-.24,.32-.46,.5-.68,.11-.12,.26-.1,.49,.05l.1-.15-1.08-.72-.1,.15c.26,.19,.35,.32,.28,.47-.13,.25-.27,.49-.43,.72l-.37,.56h-.01l-.39-2.59-.84-.56-.1,.15c.35,.27,.38,.41,.1,.84l-.45,.68c-.15,.23-.31,.46-.49,.67-.11,.12-.26,.11-.5-.04l-.1,.15,1.07,.71,.1-.15c-.26-.19-.34-.33-.27-.47,.13-.25,.27-.49,.43-.71l.48-.73h0l.4,2.86,.26,.17,.93-1.4Zm1.42,1.32c-.54,.58-.68,1.25-.28,1.63,.3,.28,.81,.3,1.4-.33,.48-.51,.72-1.23,.29-1.64-.31-.29-.89-.22-1.41,.34m1.61-.47c.65,.52,.75,1.46,.24,2.1-.02,.03-.05,.06-.07,.08-.56,.63-1.53,.69-2.16,.13-.03-.03-.06-.06-.09-.09-.65-.52-.76-1.47-.23-2.12,.02-.02,.03-.04,.05-.06,.58-.64,1.56-.69,2.2-.12,.02,.02,.05,.04,.07,.07m1.84,4.06c.3-.26,.33-.71,.08-1.01-.26-.3-.71-.33-1.01-.08-.3,.25-.33,.7-.08,1,.26,.3,.71,.34,1.01,.08m1.19,1.52l.14,.21c.12,.25,.42,.36,.68,.24,.25-.12,.36-.42,.24-.68-.02-.04-.04-.07-.07-.1-.14-.21-.16-.22-.29-.13l-.7,.46Zm-.18,.12l-.6,.39c-.36,.24-.33,.41-.19,.61,.16,.25,.49,.33,.74,.18,.02,0,.03-.02,.05-.03,.3-.2,.38-.6,.18-.9-.02-.03-.04-.06-.07-.08l-.11-.17Zm.26-.96c.4-.26,.4-.31,.21-.64l.15-.1,.9,1.36c.32,.48,.37,.92-.03,1.18-.3,.15-.66,.07-.87-.18h0c.24,.36,.16,.84-.18,1.1-.57,.38-1.1-.16-1.43-.65l-.81-1.23,.15-.1c.25,.33,.3,.34,.69,.08l1.23-.82Zm1.25,4.02l.32,.65,.67-.73v-.02l-.99,.1Zm-.56,1.11l.07,.11c.1,.15,.15,.16,.36-.06l.28-.31-.39-.8c-.08,0-.29,.04-.49,.07-.2,.03-.23,.09-.17,.27l.06,.14-.16,.08-.52-1.06,.16-.08c.15,.23,.21,.33,.68,.3l2.46-.14,.15,.19-1.71,1.95c-.2,.16-.25,.45-.11,.67l-.16,.08-.66-1.32,.16-.08Zm3.6,2.14l.09,.24c.08,.15,.11,.33,.07,.49-.04,.09-.13,.18-.37,.33l.08,.17c.23-.11,.6-.29,.81-.36l-.04-.1c-.1-.04-.14-.05-.19-.2l-.7-1.9c-.05-.15-.06-.2,0-.3l-.04-.1c-.21,.07-.52,.15-.87,.26l.06,.17c.15-.03,.31-.03,.46,.02,.1,.04,.2,.14,.33,.5l.05,.14-1.83,.68c-.45,.17-.49,.14-.66-.26l-.17,.06,.58,1.55,.17-.06c-.13-.43-.12-.48,.33-.65l1.83-.68Zm-.68,2.79l.18,.71,.8-.58v-.02l-.99-.11Zm-.78,.97l.05,.12c.06,.17,.11,.19,.36,.01l.34-.25-.22-.86c-.08,0-.29-.03-.49-.04-.2,0-.24,.04-.22,.22l.02,.15-.18,.04-.29-1.14,.18-.04c.1,.26,.14,.37,.6,.44l2.44,.37,.11,.22-2.07,1.55c-.23,.12-.34,.39-.25,.63l-.18,.04-.37-1.43,.18-.05Zm.36,2.89c.96,.22,2.25,.58,2.37,.62,.43,.15,.53,.21,.61,.53l.18-.03-.19-1.18-.18,.03v.12c.02,.23-.06,.26-.3,.21-.23-.05-1.28-.25-1.61-.34l1.44-.91c.19-.12,.26-.13,.31,.05l.04,.16,.18-.03-.24-1.48-.18,.03c.06,.24-.07,.49-.3,.59l-2.19,1.38,.04,.25Zm1.49,2.16l.05,.73,.9-.42v-.02l-.94-.29Zm-.94,.81l.02,.12c.03,.18,.08,.21,.35,.08l.38-.18-.06-.89c-.07-.02-.29-.08-.48-.12-.2-.04-.25,0-.25,.18v.15h-.18l-.08-1.16h.18c.05,.26,.07,.37,.51,.53l2.33,.82,.07,.24-2.33,1.14c-.25,.08-.4,.32-.36,.58h-.18l-.1-1.46h.18Zm1.45,3.46c.39,0,.71-.32,.72-.71s-.32-.71-.71-.72c-.39,0-.71,.31-.72,.7,0,.39,.31,.72,.7,.72h0m-1.88,3.32c.17,.06,.61,.19,.83,.26l.04-.19c-.18-.07-.34-.17-.48-.31-.1-.15-.13-.34-.08-.52,0-.13,.04-.26,.11-.38,.06-.08,.2-.1,.45-.08l1.44,.15c.48,.05,.5,.09,.48,.53l.18,.02,.17-1.59-.18-.02c-.07,.4-.1,.43-.58,.38l-1.45-.16c-.48-.05-.51-.08-.49-.53l-.18-.02-.26,2.45Zm1.68,2.79c.47,.1,.49,.14,.43,.54l.18,.04,.32-1.53-.18-.04c-.11,.39-.14,.42-.61,.32l-1.43-.31c-.46-.1-.49-.14-.43-.54l-.18-.04-.33,1.53,.18,.04c.11-.39,.15-.42,.61-.32l1.44,.3Zm-1.34,2.93l-.08,.23c-.13,.25-.03,.56,.22,.68,.25,.13,.56,.03,.68-.22,.02-.04,.03-.07,.04-.11,.08-.24,.07-.26-.08-.31l-.79-.27Zm-.21-.07l-.68-.23c-.41-.14-.52-.01-.6,.22-.11,.28,.04,.6,.32,.7,.02,0,.03,.01,.05,.02,.44,.15,.72-.13,.85-.51l.07-.2Zm.92-.38c.45,.15,.49,.12,.63-.23l.17,.06-.52,1.55c-.19,.55-.49,.86-.94,.7-.3-.15-.46-.48-.39-.8h-.01c-.13,.4-.56,.63-.97,.52-.65-.22-.55-.97-.36-1.53l.47-1.39,.17,.06c-.11,.4-.09,.45,.36,.6l1.4,.47Zm-2.94,3.58c-.43-.21-.44-.26-.27-.67l-.16-.08-1.13,2.27c.09,.09,.49,.4,.63,.5l.1-.16c-.12-.11-.23-.25-.3-.4-.03-.19,.02-.39,.12-.55,.06-.14,.14-.27,.25-.38,.08-.06,.23-.02,.46,.09l.57,.29-.19,.38c-.17,.34-.19,.34-.51,.24l-.08,.17,.87,.43,.08-.17c-.27-.2-.29-.22-.12-.56l.19-.38,.78,.39c.15,.07,.14,.08,.06,.24l-.11,.22c-.14,.28-.25,.38-.33,.41-.16,.03-.32,.02-.47-.04l-.07,.17c.31,.12,.59,.24,.7,.29l1.06-2.12-.16-.08c-.2,.34-.24,.36-.67,.14l-1.31-.66Zm-1.71,4.46l-.12,.17c-.09,.12-.15,.25-.17,.4,0,.21,.11,.41,.29,.52,.24,.2,.6,.16,.8-.08,.02-.02,.03-.05,.05-.07,.15-.22,.15-.24,0-.34l-.85-.6Zm-.6-.42c-.39-.27-.44-.26-.69,.06l-.15-.11,.89-1.27,.15,.1c-.21,.35-.21,.4,.18,.67l1.2,.84c.39,.28,.44,.26,.68-.05l.15,.11-.93,1.33c-.13,.22-.32,.4-.54,.52-.23,.1-.49,.06-.69-.09-.29-.22-.39-.61-.25-.94-.16-.01-.53-.02-.77-.02-.19,0-.38,0-.56,.04-.12,.03-.24,.09-.34,.16l-.13-.12,.15-.21c.34-.47,.57-.52,.86-.53,.26,0,.62,.04,.83,.05,.16,.01,.21-.01,.32-.17l.06-.09-.43-.3Zm-1.6,5.05l-.17,.18c-.17,.18-.3,.27-.42,.28-.17-.02-.32-.08-.45-.19l-.12,.15c.2,.16,.52,.42,.69,.57l.07-.08c-.02-.1,.01-.2,.09-.26l1.4-1.46c.11-.12,.15-.14,.27-.13l.07-.08c-.16-.16-.37-.41-.61-.67l-.13,.13c.09,.12,.16,.27,.19,.42,0,.11-.04,.24-.31,.52l-.11,.11-1.41-1.35c-.34-.33-.34-.38-.06-.71l-.13-.12-1.14,1.19,.13,.13c.33-.31,.38-.32,.73,.01l1.41,1.35Zm-3.17,.88l-.57,.45,.85,.51h.02l-.29-.96Zm-1.2-.33l-.09,.09c-.13,.13-.13,.18,.13,.34l.36,.21,.7-.55c-.02-.07-.1-.28-.16-.47-.07-.19-.14-.21-.29-.11l-.13,.08-.11-.15,.93-.72,.11,.14c-.19,.19-.28,.28-.16,.73l.62,2.39-.16,.19-2.24-1.29c-.2-.17-.49-.16-.68,.03l-.11-.15,1.16-.91,.11,.14Zm-2.11,4.29l-.23,.12c-.22,.12-.37,.17-.48,.13-.1-.03-.2-.1-.37-.32l-.16,.1c.14,.21,.36,.56,.47,.76l.09-.05c.02-.11,.03-.14,.17-.22l1.78-.95c.14-.07,.19-.09,.3-.04l.09-.05c-.1-.2-.22-.5-.38-.83l-.16,.09c.05,.15,.07,.31,.05,.46-.03,.1-.11,.21-.45,.39l-.13,.07-.92-1.73c-.23-.42-.21-.46,.17-.69l-.09-.16-1.45,.78,.08,.16c.41-.19,.46-.18,.69,.24l.92,1.73Zm-3.71,1.02c.15,.46,.12,.49-.25,.65l.06,.17,1.48-.5-.06-.17c-.39,.1-.44,.09-.59-.37l-.47-1.39c-.15-.45-.12-.49,.25-.64l-.06-.17-1.48,.5,.06,.17c.39-.11,.44-.08,.59,.37l.47,1.39Zm-2.29-.64c-.08-.25-.18-.51-.29-.75-.28-.12-.58-.15-.87-.09-.7,.11-1.13,.55-1.04,1.11,.09,.51,.53,.69,1.01,.78l.17,.03c.27,.05,.47,.16,.51,.4,.04,.24-.13,.46-.36,.5h-.01c-.35,.02-.67-.2-.77-.53l-.19,.06c.1,.31,.16,.53,.21,.7,.23,.03,.47,.04,.7,.02,.74-.12,1.07-.57,.99-1.1-.07-.43-.51-.59-.9-.68l-.18-.04c-.35-.08-.53-.25-.57-.5-.03-.25,.15-.48,.4-.51h.02c.43,0,.82,.26,.99,.65l.2-.05Zm-5.05,1.08c.01,.39,.34,.7,.73,.69,.39-.01,.7-.34,.69-.73-.01-.39-.33-.69-.71-.69-.4,0-.71,.33-.71,.73m-7.35-33.9h0m27.43-3.08c.17-.17,.42-.25,.66-.21-.01-.02-.02-.03-.04-.05-.25-.24-.64-.24-.89,0-.24,.25-.24,.64,0,.88,.01,.01,.03,.03,.05,.04-.04-.24,.04-.49,.21-.67m-3.14-9.53c3.71,5.08,5.68,11.23,5.61,17.52,.01,3.63-.63,7.23-1.88,10.64-.04,.1-.08,.21-.12,.32h-2.36c.24,.17,.39,.44,.41,.73,0,.52-.35,.52-.98,.52h-6.97c-.43,0-.77,0-.95-.17-.09-.09-.13-.22-.12-.35,.02-.3,.17-.57,.41-.74h-4.4c.35-.53,.62-1.1,.79-1.71,.91-3.1,.83-6.52,.86-9.27,.02-1.62,.02-1.49-.05-3.04,0,0,.31-.11,.11-.74-.1-.32-.31-.6-.59-.78,.03-.14-.02-.29-.13-.39l-.21-.18s-.01-.06-.02-.09c-.08-.24-.13-.48-.14-.73-.1-.95-.31-1.88-.63-2.77,.12,.04,.24,.05,.36,.02,.43-.07,.35-.59,.13-.88-.11-.14-.41-.59-.56-.82-.17-.36-.32-.74-.45-1.12-.05-.69-.06-1.37-.01-2.06,.18-3.18-1.28-3.38-1.78-3.62-.18-.07-.34-.18-.48-.3-.03,.59-.88,.97-1.77,.97s-1.77-.35-1.77-.96c0-.04-.03-.08,.08-.19l-.44,.06c-.55,.14-.68,.09-.89,.16-.46,.18-.8,.58-.91,1.06-.28,.65-.54,1.4-.54,1.4-.07,.16-.15,.45-.15,.45,0,0-.19-.23-.28-.33-.18-.22-1.27-1.21-1.45-1.4-.08-.08-.78,.13-.78,.13,1.01,.8,1.9,1.74,2.65,2.79,.08,.17,.03,.11-.09,.05-1.12-.43-2.33-.59-3.52-.47l-.45,.63c2.08-.2,3.69,.02,4.1,.6,.11,.15,.3,.22,.48,.18,.17-.04,.29-.19,.29-.37,0-.1,.02-.2,.07-.29,.84-1.4,2.14-2.48,3.67-3.06l1.06,3.31c.26,.02,.52,.07,.77,.14-.08-.19-.52-.58-.38-.8,.04-.06,.5,0,.72-.13,.25-.17,.65-.52,.28-1.48-.07-.17-.15-.38-.18-.46l.18-.06c.02,.06,.09,.24,.17,.45,.51,1.26-.08,1.61-.32,1.84-.04,.04-.08,.08-.11,.12-.1,.21-.07,.45,.07,.64,.22,.08,.22,.16,.22,.16v.7c-.91-.24-1.84-.38-2.78-.41,.1-.02,.45-.18,.33-.3-.05-.05-.34,.03-.5,.05-.13,.01-.12-.08-.05-.13,.09-.04,.17-.08,.25-.14,.25-.14,.45-.36,.57-.61,.05-.15-.13-.17-.13-.17,.02-.14-.1-.2-.26-.13-.26,.13-.53,.24-.81,.33-.1,.02-.17-.08-.11-.15,.2-.2,.36-.42,.5-.66,.23-.33-.1-.31-.22-.2-.36,.36-.76,.68-1.2,.94-.17,.07-.22,.05-.2-.09,.03-.16,.03-.33,0-.49-.01-.16-.33-.3-.33-.1,.02,.22-.05,.44-.18,.61-.23,.29-.13,.68-.23,.76-.56,.49-1.32,.67-2.05,.5-.33-.41-.91-.51-1.36-.24-1.11,1.01-.63,3.28-.56,3.45,.49,1.27,1.26,.61,1.4,.47,.56-.59,.97-1.32,1.18-2.11,.41-.11,.8-.3,1.15-.55,.3-.24,.62-.44,.97-.59,.23,0,.58-.18,.72-.13v.15c-.53,.3-1.02,.65-1.48,1.05-.11,.65-1.72,2.85-1.1,3.29,.27,.19,.11,.56,0,1.03-.28,1.33-.5,2.68-.64,4.03,0,0-.18,.7,.15,.92,.56,.18,1.16,.24,1.75,.18,.18-.02,.54,.19,.7,.18,0,0-.05,1.14-.23,1.12-.2-.02-.17-.81-.2-.74-.03,.08-.16-.11-.22-.09-.44,.05-.88,.03-1.31-.05-.14-.01-.27,.08-.32,.21-.06,.47-.09,.94-.09,1.41-.02,.35-.08,.6-.12,1.02-.02,.2-.02,1.58-.06,2.17-.08,1.2-.22,4.35-.25,5.42-2.08,.05-4.1-.23-3.31-1.03,.13-.14,.27-.24,.43-.38,.59-.54,.62-.05,1.26-1.03,.5-.94,.86-1.95,1.05-2.99,.2-.69-.06-.98-.58-.04-.14,.32-.3,.62-.48,.92-.18,.26-.42,.48-.71,.63-.6,.25-1.05-.87-.21-1.85,.31-.37,.68-.29,.72-.09,.03,.08,.12,.13,.21,.1,.04-.01,.08-.05,.09-.09,.11-.17,.2-.34,.29-.52,.67-1.11,1.08-2.35,1.19-3.64,0-.18,0-.33-.01-.46,0-.81-.5-1.09-.69-.55-.16,.45-.51,.33-.41-.25,.37-1.62,.87-3.2,1.51-4.73,.09-.27-.12-.33-.19-.39-.1-.09-.17-.12-.12-.35,.3-1.02,.71-2,1.22-2.93,.15-.22-.05-.33-.22-.06-2.2,3.43-3.11,9.2-3.09,9.57,.04,1.5,.92,.72,.92,.72-.2,.73-.56,1.42-1.06,2-1.94,2.84-1.14,4.15-1.14,4.15,.3,.58,.83,1.07-.35,1.99-.38,.3-1.6,1.18-.24,2.12,.42,.29,.73,.47,.94,.59h-2.02c.24,.17,.39,.44,.41,.74,0,.52-.35,.52-.98,.52h-6.97c-.43,0-.77,0-.95-.17-.09-.09-.14-.22-.13-.35,.02-.29,.17-.56,.41-.73h-2.11c-.04-.1-.08-.21-.12-.31-1.25-3.41-1.89-7.01-1.88-10.64-.06-6.29,1.9-12.44,5.61-17.52,.01-.02,.02-.03,.04-.05v9.22c-.24-.12-.53-.08-.72,.11-.02,.02-.03,.03-.04,.05,.24-.04,.49,.04,.66,.21,.17,.17,.25,.41,.22,.64-.04,.03-.07,.06-.12,.09v.25c.25,.45,.73,.73,1.25,.7,.65,0,1.18-.52,1.19-1.17-.05-.07-.12-.13-.2-.15-.09,.33-.44,.53-.77,.43-.33-.09-.53-.44-.43-.77,.09-.33,.44-.53,.77-.43,.26,.07,.44,.3,.45,.57,.08,0,.27,0,.29-.36-.34-.06-.57-.38-.52-.72,.06-.34,.38-.57,.72-.52,.34,.06,.57,.38,.52,.72-.04,.27-.25,.47-.52,.52,.02,.36,.21,.37,.29,.36,.02-.34,.32-.6,.66-.58,.34,.02,.6,.32,.58,.66-.02,.34-.32,.6-.66,.58-.26-.02-.49-.2-.56-.45-.08,.02-.15,.08-.2,.15,.01,.65,.54,1.17,1.19,1.17,.6,.03,1.15-.34,1.34-.91-.25-.09-.41-.33-.41-.59,0-.15,.05-.29,.15-.4,.24-.04,.48,.04,.65,.21,.17,.18,.25,.42,.21,.67,.02-.01,.03-.02,.05-.04,.24-.25,.24-.64,0-.89-.16-.16-.38-.22-.6-.16V12.98s-.86-7.46,10.48-7.6c10.82-.07,10.68,7.63,10.68,7.63v10.06c-.19-.02-.38,.04-.52,.18-.24,.24-.25,.64,0,.88h0s.03,.03,.05,.04c-.04-.24,.04-.49,.21-.67,.17-.17,.42-.25,.66-.21,.1,.11,.16,.26,.16,.41,0,.26-.16,.5-.41,.59,.2,.57,.74,.94,1.35,.91,.65,0,1.17-.53,1.19-1.17-.05-.07-.12-.13-.2-.16-.09,.34-.44,.53-.78,.44-.34-.09-.53-.44-.44-.78,.09-.34,.44-.53,.78-.44,.26,.07,.45,.3,.46,.57,.08,.01,.27,0,.29-.36-.34-.06-.57-.38-.52-.72s.38-.57,.72-.52,.57,.38,.52,.72c-.04,.26-.25,.47-.52,.52,.02,.36,.21,.37,.29,.36,.02-.35,.32-.61,.66-.59,.35,.02,.61,.32,.59,.66-.02,.35-.32,.61-.66,.59-.27-.02-.49-.2-.57-.45-.08,.03-.15,.08-.2,.16,.01,.65,.54,1.17,1.19,1.17,.6,.03,1.15-.34,1.35-.91-.07-.03-.14-.07-.19-.12-.07-.42,.21-.81,.63-.88,.08-.01,.16-.01,.25,0-.01-.01-.02-.03-.04-.04-.15-.15-.36-.21-.56-.17V13.93s.02,.04,.04,.05m-26.84,10.46c.02,.6,.53,1.06,1.12,1.03h0c.23-.01,.45-.09,.63-.24-.14,.07-.29,.11-.45,.12-.53,.05-1.02-.32-1.1-.85-.01-.06-.03-.12-.03-.18l-.18,.12Zm-8.18-.7s-.03,.03-.04,.05c.42-.07,.81,.21,.88,.63,.01,.08,.01,.17,0,.25,.02-.01,.03-.03,.05-.04,.24-.25,.24-.64,0-.89-.24-.24-.64-.24-.88,0m-.49,.4c.25-.24,.25-.64,0-.89s-.64-.25-.89,0c-.01,.02-.03,.03-.04,.05,.41-.07,.81,.21,.88,.63,.01,.08,.01,.17,0,.25,.02-.01,.03-.02,.05-.04m.37,.67c.2,.38,.58,.63,1,.66,.26,.03,.52-.05,.73-.21-.17,.08-.36,.11-.54,.09-.42-.03-.8-.28-1-.66l-.18,.12Zm9.63,18.37c-.05-.32-.26-.6-.56-.74-.16-.1-.32-.17-.5-.24h.02s-.02,0-.03,0h-6.5s-.02,0-.03,0h.02c-.17,.06-.34,.14-.5,.24-.3,.14-.5,.41-.55,.74,0,.04,0,.08,.02,.12h8.61s0-.08,0-.12m1.51-19.92s-.03,.03-.04,.05c.42-.07,.81,.21,.88,.63,.01,.08,.01,.17,0,.25,.02-.01,.03-.03,.05-.04,.24-.25,.24-.64,0-.89-.24-.24-.64-.24-.88,0m.13,1.24c-.27,.12-.64,.49-.61,1.62,0,.28,.01,.38,0,.46H8.27v7.4c0,1.92,1.01,3.7,2.67,4.67,1.42,.84,3.15,.97,4.68,.37-.81,.47-1.73,.71-2.67,.71-.69,0-1.37-.13-2.01-.39v2.67h5.46v-3.37c1.65-.97,2.66-2.75,2.66-4.66v-7.4h0c.01-.19,.01-.39,0-.58-.09-.54,.06-1.09,.42-1.5m-.59-.75c-.24-.24-.64-.24-.89,0-.01,.02-.03,.03-.04,.05,.24-.04,.49,.04,.66,.21,.17,.17,.25,.42,.21,.67,.02-.01,.03-.02,.05-.04,.24-.25,.24-.64,0-.89m11.96-15.73c.01-.47-.03-1.1-.94-1.1,.26,0-.65-.07-.65,.38,.02,.39-.27,.71-.66,.74-.02,0-.05,0-.07,0,.01,0-1.06-.32-.51-.53,.42-.17,.63-.64,.46-1.06,0-.02-.01-.03-.02-.05-.23-.37-.72-.49-1.09-.26-.06,.04-.12,.08-.17,.14-.12,.12-.04,.47-.26,.47-.29,0-.27-.27-.27-.44,0-.19-.09-.48-.58-.48-.3-.04-.57,.17-.61,.47v.04c-.04,.19,.06,.38,.24,.46,.17,.1,.08,.46-.22,.25-.1-.06-1.15-1.03-2.16-.39-.46,.3-.44,.7-.14,.89,.12,.08,.16,.22,0,.31-.31,.4-.25,.98,.15,1.31,.36,.33,.91,.31,1.24-.05,.05-.06,.1-.12,.13-.18,.11-.32,.15-.66,.12-1,0-.13,.09-.53,.66-.42,.25,.05,.29,.22,.15,.36-.55,.42-.87,1.08-.86,1.78,0,.35-.19,.66-.5,.83-.24,.16-.87,.55-.3,1.19,.32,.36,.38,.46-.34,1.14-.12,.11-.4,.26,.11,.31,.69,.01,1.39-.03,2.07-.12l-.14-.27c-.53,.07-1.07,.08-1.6,.05,.55-.28,.77-.94,.49-1.49-.01-.03-.03-.05-.04-.08-.27-.35-.03-.64,.5-.71,.42-.09,.86-.03,1.24,.18,0,0-.78-.09-1.09,.16v.07s.04,.12,.06,.21c.29-.08,.58-.14,.88-.18,.05,.03,.06,.09,.04,.13-.03,.05-.09,.06-.13,.04-.07,.03-.15,.03-.23,.03,0,.01,.13,.08,.14,.1,.02,.1-.03,.19-.13,.22-.1,.02-.19-.03-.22-.13h0c-.01-.05,0-.11,.03-.15-.12,.01-.24,.03-.35,.07,0,.03,.01,.05,.02,.07,.01,.04,.03,.07,.04,.11,.07,.14,.11,.28,.12,.44,0,.08,.03,.16,.06,.24,.02,.04,.05,.1,.07,.16,.19,.44,.48,1.1,1.32,.9,.05-.01,.09,.02,.11,.06h0s-.02,.09-.06,.1c-.04,.02-.12,.05-.16,.07-.15,.07-.31,.08-.47,.04,.04,.13,.06,.24,.06,.24,0,0-.31,.05-.44,.08-.02,.06-.03,.02-.03,.09,0,.52,.67,.95,1.5,.95s1.5-.42,1.5-.95c0-.04,0-.08-.02-.13h0c-.05-.08-.1-.15-.14-.22-.38-.64-.31-.81-.31-.81,.04-.09-.02-.09,.05-.1,.66-.03,1.31-.11,1.96-.24,.14-.03,.31-.16,.15-.26-.13-.08-1.24-.2-1.23-.86,0-.5,.15-1.15-.81-1.44-.08-.02-.09-.06-.08-.17,0-.34-.1-.67-.3-.94-.16-.18-.39-.4-.36-.48l.14-.04c.25,.12,.46,.32,.6,.56,.14,.26,.38,.48,1.18,.48,.62-.02,1.12-.53,1.11-1.16m14.03,15.71c-.24,.25-.24,.64,0,.89,.02,.01,.03,.02,.05,.04-.04-.24,.04-.49,.21-.67,.17-.18,.42-.26,.66-.21-.01-.02-.02-.03-.04-.04-.24-.24-.64-.25-.88,0h0m-.18,1.61c-.19,.02-.37-.02-.54-.09,.21,.16,.47,.24,.73,.21,.42-.04,.8-.28,1-.66l-.18-.12c-.2,.38-.58,.63-1,.66m-3.98,6.04h.62v-.46c0-.26-.2-.27-.44-.29v-.11h1.22v.11c-.22,.02-.46,.03-.46,.29v.46h.28v.65c.07,.03,.15,.04,.22,.04,.36,0,.53-.22,.54-.62,0-.13,0-.25-.03-.37h.2c-.02,.16-.03,.32-.03,.48v-.09c.02,.21-.06,.43-.22,.58-.16,.12-.35,.18-.55,.18-.05,0-.09,0-.14-.01v.69h1.23v-3h-2.47v1.5Zm2.67-3.34s0-.01,0-.02c0,0,.01,0,.01,0,0-.01,0-.03-.01-.04h0l-.25-.12s-.03,0-.04,.02c0,.01,0,.03,.01,.04l.11,.05s-.03,.02-.03,.04c0,.04,.03,.08,.09,.09,.06,0,.11-.01,.12-.05m-.06,.29c-.12-.02-.23,.04-.27,.16,.39-.16,.42,.14,.42,.14,.01-.06,.11-.24-.15-.29m.13-.3s0,0,.01,.01c0,0-.01,0-.02,.02,0,.04,.03,.08,.09,.09,.06,.01,.11-.01,.12-.05,0-.02,0-.03-.02-.05h.12s.03-.02,.03-.04c0-.02-.01-.03-.03-.03h-.27s-.03,.03-.03,.04m.18,1.94c-.08,0-.16-.02-.24-.04v.21c.06-.03,.12-.05,.19-.05,.14-.01,.05-.11,.05-.11m-.75,4.74c.21-.38,.32-.81,.31-1.24v-.4h-1.23v.13c0,.11-.01,.21-.04,.31l.96,1.19Zm-1.9-.19c-.08,.02-.17,.04-.25,.04v1.51c.43-.02,.84-.15,1.21-.37l-.95-1.18Zm-.8-2.2v-.74h-.74v.74h.74v.84h-.74v.05c0,.48,.3,.91,.74,1.09v-1.13h.84v1.13c.41-.16,.7-.54,.74-.98,0-.04,0-.07,0-.11v-.05h-.74v-.84h-.84Zm.84,0h.74v-.74h-.74v.74Zm-3.09-4.68s0,0,0,.01c0,.04,.02,.08,.06,.08,.04,0,.08-.02,.08-.06,0,0,0-.02,0-.02,0,0,0-.01,0-.02h.11s.04,0,.04-.03c0-.02-.01-.03-.03-.03h-.26s-.04,0-.04,.03c0,.02,.01,.04,.03,.04h.02Zm.07,3.2v2.04h1.23v-.51l-1.23-1.53Zm2.19,.54h.34v-1.5h-1.54l1.21,1.5Zm-2.19,1.7v.4c0,1.41,1.12,2.56,2.52,2.6v-1.5c-.09,0-.19-.02-.28-.04,0,.04,0,.07,0,.11v-.09c.02,.21-.06,.42-.22,.57-.16,.12-.35,.19-.55,.18-.19,0-.37-.03-.53-.13-.17-.13-.26-.34-.22-.56v-.6c0-.26-.2-.27-.44-.29v-.11h1c-.04-.13-.06-.27-.06-.4v-.13h-1.23Zm1.34,.67c-.15,.02-.28,.08-.28,.27v.55c0,.38,.15,.59,.5,.59s.53-.21,.54-.62v-.06c-.34-.13-.62-.4-.76-.74m-1.97-9.26c-.08,.53-.57,.9-1.1,.86-.16,0-.31-.05-.45-.12,.47,.38,1.15,.3,1.52-.16,.15-.18,.23-.4,.24-.63l-.18-.12c0,.06-.02,.12-.03,.18m-2.17-.74c-.24,.25-.24,.64,0,.89,.02,.01,.03,.03,.05,.04-.04-.24,.04-.49,.21-.67,.17-.17,.42-.25,.66-.21-.01-.02-.02-.03-.04-.05-.24-.24-.64-.25-.88,0h0m-1.1-.24c.17-.17,.42-.25,.66-.21-.01-.02-.02-.03-.04-.05-.25-.24-.64-.24-.89,0-.24,.24-.24,.64,0,.88,.02,.01,.03,.03,.05,.04-.04-.24,.04-.49,.21-.67m.67,1c.36,.41,.51,.96,.42,1.49-.01,.38,0,.52,0,.56v6.32h2.62v-1.46c-.23,.07-.47,.11-.7,.14-.22,.06-.08,.43-.08,.43-.2-.03-.19-.26-.19-.26-.24,0-.2,.31-.2,.31-.2-.09-.02-.3-.08-.32-.11-.05-.28,.17-.28,.17-.01-.15,.05-.3,.16-.41-.08-.06-.21,.02-.21,.02,.12-.35,.4-.16,.47-.11,.06,.04,.1,.08,.18,.02,.17-.13,.36-.25,.56-.34-.2,.03-.32-.23-.32-.23,.25,0,.27-.07,.32-.15,.1-.16,.22-.3,.37-.41v-.4c-.13-.05-.27-.12-.39-.19-.22,.26-.48,.49-.77,.67-.06,.01-.11,.07-.1,.14,0,.21-.1,.27-.1,.27,.02-.1-.05-.19-.14-.2h-.02c-.17-.01-.2,.24-.2,.24-.17-.08-.03-.36-.03-.36-.11,.02-.22,.07-.31,.14-.08-.2,.23-.31,.23-.31-.1-.03-.2-.04-.3-.03,.08-.16,.27-.22,.43-.14,.04,.02,.07,.04,.09,.07,.03,.05,.07,.14,.14,.04,.08-.13,.58-.61,.67-.7-.07-.03-.32,.03-.47-.12,.18,0,.37-.05,.51-.16-.01-.04-.04-.08-.08-.1-.33-.24-.64-.5-.92-.8-.34,.03-.39-.17-.39-.17,.1,.03,.3,.01,.3-.06,0-.08-.29-.21-.29-.21,.07-.06,.33,.01,.33,.01,0-.04-.17-.27-.17-.27,.14,0,.31,.18,.31,.18,.04-.09-.05-.3-.05-.3,.31,.15,.24,.56,.24,.56l.93,.66c.2,.13,.47,.1,.62-.09,.08-.06,.09-.18,.02-.25-.02-.03-.06-.05-.09-.06-.03,0-.15,.02-.18-.03-.04-.07-.02-.17,.03-.19,.11,0,.21,0,.32,0,.05,0,.08-.09,.02-.11-.28-.12-.39-.16-.39-.21,0-.1-.02-.18,.03-.18,.13,0,.15-.03,.15-.03,.13-.17,.22-.17,.26-.18,.14,0,.29,.04,.42,.09,.04,0,.1,.02,.12,0,.1-.1,.27-.1,.37,0h0c-.08,0-.22,.1-.17,.13,.1,.08-.03,.36-.06,.44-.08,.25,.18,.49,.18,.49-.14,.07-.31,.06-.43-.04,0,.44,.67,.46,.67,.46-.14,.25-.56,.19-.64,.17-.1-.02-.08,.11,.05,.16,.22,.09,.43,.22,.61,.37h.61c.04-.09,.05-.19,.02-.28-.1-.24-.23-.46-.39-.65-.05-.07-.1-.13-.13-.18-.01-.02-.31-.46-.13-.73,.11-.18,.34-.26,.54-.17,.17-.2,.47-.13,.59,.19,.14,.37-.23,.41-.01,.96-.42-.09-.69-.51-.6-.93,0-.02,0-.04,.02-.06-.06,0-.12-.01-.17-.01-.08,0-.16,.04-.21,.11-.08,.14,.03,.41,.13,.55,.03,.05,.08,.11,.13,.18,.18,.21,.32,.45,.42,.71,.03,.11,.03,.22,0,.32h.59v-3.1h-5.09l-.07-.02c0-.08,0-.19,0-.44,.04-1.13-.34-1.5-.6-1.61m.42,9.47c0,.31,.03,.62,.08,.93h2.93c-.26-.43-.39-.92-.39-1.43v-.4h-2.62v.9m1.01,3.15c.38,.53,.85,.98,1.38,1.35v3.54h5.74v-2.68c-1.53,.63-3.26,.51-4.7-.31,.61,.24,1.25,.36,1.9,.37v-2.26h-4.33m8.62,6.06c0-.37-.39-.73-1.05-.98h-6.53c-.66,.24-1.05,.61-1.05,.98,0,.04,0,.08,.02,.12h8.6s.01-.08,.01-.12m1.16-10.1h-2.58v.4c0,.25-.03,.5-.1,.75,.16,.01,.33,0,.49-.02,0,0,.39-.02,.59,0,.09,0,.18,.02,.26,.05,.19-.04,.55-.15,.62-.29,.01-.03,.06-.07,.05-.1,0,0,0-.12-.03-.13-.18-.03-.35,0-.51,.1-.19,.13-.43,.15-.64,.05-.07-.05-.07-.15-.03-.29,0,0,.02-.18,.32-.18,.1,0,.11,.12,.03,.19-.06,.05-.2,.12-.27,.09-.01,.06,0,.1,.01,.12,.17,.09,.38,.07,.53-.06,.18-.1,.38-.14,.58-.11,.06,.02,.12,.12,.13,.14,.03,.06-.06,.17-.09,.22-.08,.15-.38,.26-.58,.31,.05,.03,.09,.07,.11,.12,.02,.05,.04,.1,.05,.15,.05,.25,.38,.12,.38,.12-.03,.19-.07,.37-.14,.55-.03,.1-.25,.05-.34,.05-.11,0,0-.06,.04-.09,.04-.03,.17,.03,.17,.03l.07-.33c-.25,.03-.49-.1-.6-.33-.18,.26-.41,.49-.67,.68-.08,.05-.18,.05-.26,0-.05-.05,.08-.07,.08-.07,.25-.09,.62-.64,.62-.64,0,0,.08-.19-.45,.06-.24,.13-.51,.2-.78,.2,0,.02-.02,.03-.03,.05-.23,.4-.56,.74-.96,.98-.4,.25-.86,.39-1.33,.41v3.1c1.07-.03,2.11-.37,2.98-1h0c1.43-1.02,2.27-2.66,2.27-4.41v-.9Zm0-6.5h-5.25v3.1h1.46s.05-.05,.07-.07c-.12-.05-.24-.13-.33-.23,.18,0,.36-.05,.51-.16-.01-.04-.04-.08-.08-.11-.33-.24-.64-.5-.92-.8-.34,.04-.38-.17-.38-.17,.09,.03,.3,0,.3-.06,0-.08-.29-.2-.29-.2,.07-.06,.33,.01,.33,.01-.05-.1-.11-.19-.17-.27,.15,0,.31,.18,.31,.18,.04-.09-.05-.3-.05-.3,.19,.12,.28,.35,.24,.56l.74,.54c.21,.11,.4,.17,.45-.13-.13-.03-.24-.1-.33-.2,.11,0,.21-.04,.3-.1,.15-.1,0-.47,.2-.51l.82,.17c.02,.17-.01,.35-.08,.51,0,0,.03,.28,.15,.33,0,0-.27,.05-.32-.03l-.05,.11c0,.23,.13,.43,.33,.53,.29,.13,.55,.3,.78,.51,.15,.02,.29-.01,.41-.1,.07-.09,.08-.21,.04-.32-.1-.24-.23-.45-.39-.65-.05-.07-.1-.13-.13-.18-.01-.02-.31-.46-.13-.73,.11-.18,.34-.26,.54-.17,.17-.2,.46-.13,.58,.19,.14,.37-.23,.41-.01,.96-.42-.09-.69-.51-.6-.93,0-.02,0-.04,.01-.06-.06,0-.12-.01-.17-.01-.08,0-.16,.04-.21,.11-.08,.14,.03,.41,.13,.55,.03,.05,.08,.11,.13,.18,.18,.21,.32,.45,.42,.71,.05,.16,.02,.34-.08,.48-.13,.12-.3,.17-.48,.16,.03,.08,.04,.13,.06,.2,.03,.08,.08,.15,.15,.2-.24,.2-.15,.38-.04,.48,.14,.12,.32-.03,.32-.03,.14,.83-.99,1.25-.95,1.3,.04,.05,.08,.04,.13,.14,.05,.07,.04,.18-.03,.23-.02,.02-.05,.03-.08,.03,.02-.14-.05-.25-.13-.26-.08,0-.23,.28-.23,.28-.06-.08,.06-.32,.06-.32-.09-.03-.3,.26-.3,.26-.05-.13,.11-.31,.11-.31-.13-.04-.33,.2-.33,.2,0-.42,.33-.44,.5-.44,.65-.01,.45-.7,.45-.7-.32,.27-.54,.15-.54,.15,.15-.07,.23-.23,.21-.39-.06-.56-.07-.63-.03-.69,.05-.06-.07-.04-.07-.04-.08,.28-.64,.68-.64,.68,.09,.03,.18,.06,.26,.1-.05,.12-.15,.21-.27,.26v1.54h2.58v-6.3Z"/><path class="cls-2" d="M72.78,12.81c-1.08,.08-1.56,.4-1.65,1.11-.11,.94-.15,1.89-.14,2.84v.94c0,2.12-.35,3.72-1.42,4.84-.91,.92-2.16,1.4-3.45,1.34-1.12,.05-2.23-.28-3.15-.93-1.1-.85-1.61-2.25-1.61-4.46v-3.78c0-1.72-.17-1.78-1.61-1.92v-.62h5.24v.62c-1.43,.11-1.59,.19-1.59,1.92v3.39c0,2.94,1.1,4.63,3.3,4.63,2.47,0,3.33-1.99,3.33-5.13v-.85c.02-.95-.04-1.9-.18-2.84-.1-.69-.51-1.01-1.82-1.11v-.62h4.74v.62Zm12.28,.89c.63,0,1.14-.5,1.14-1.13,.01-.62-.48-1.14-1.1-1.15h-.02c-.63,0-1.14,.51-1.15,1.14,0,.63,.5,1.14,1.13,1.15Zm2.5,9.92v-.55c-1.18-.13-1.41-.24-1.41-1.52v-6.45c-1.09,.31-2.2,.54-3.32,.71v.5c1.02,.16,1.39,.24,1.39,1.43v3.81c0,1.31-.25,1.41-1.39,1.52v.55h4.72Zm11.07-5.34c.12-1.38,.84-2.45,1.8-2.45s1.41,.96,1.41,2.04c0,.3-.12,.41-.43,.41h-2.78Zm4.72,.63c.25,.03,.48-.15,.51-.4,0-.04,0-.08,0-.12,.1-1.66-1.16-3.09-2.82-3.19-.13,0-.26,0-.39,0-1.03,0-2.02,.43-2.72,1.19-.87,.93-1.36,2.16-1.35,3.43-.1,2.12,1.53,3.91,3.64,4.02,.09,0,.18,0,.27,0,1.33-.11,2.54-.82,3.28-1.94l-.31-.44c-.58,.56-1.35,.88-2.16,.89-1.36,0-2.73-.79-2.73-3.28l4.78-.17Zm28.38-.63c.12-1.38,.84-2.45,1.8-2.45s1.41,.96,1.41,2.04c0,.3-.12,.41-.43,.41h-2.78Zm4.71,.63c.25,.03,.48-.15,.51-.4,0-.04,0-.08,0-.12,.1-1.66-1.16-3.09-2.82-3.19-.13,0-.26,0-.39,0-1.03,0-2.02,.43-2.71,1.19-.87,.93-1.36,2.16-1.35,3.43-.1,2.11,1.53,3.91,3.64,4.02,.09,0,.18,0,.27,0,1.33-.11,2.55-.82,3.28-1.94l-.31-.44c-.58,.56-1.35,.88-2.16,.89-1.36,0-2.73-.79-2.73-3.28l4.78-.17Zm-28.59-1.71v-2.11c-.98,.36-1.99,.6-3.02,.74v.48c.98,.18,1.13,.25,1.13,1.36v4c0,1.2-.21,1.3-1.29,1.41v.55h4.81v-.55c-1.45-.11-1.58-.21-1.58-1.41v-3.47c.37-.92,.88-1.3,1.31-1.3,.37,.05,.72,.21,1,.46,.12,.1,.29,.11,.42,.02,.43-.32,.7-.82,.74-1.35,0-.53-.51-.92-1.18-.92-.82,0-1.67,1.03-2.29,2.1h-.04Zm9.56,.34c-.06-.71-.19-1.4-.39-2.08-.58-.23-1.2-.34-1.83-.33-1.89,0-3.07,1.15-3.07,2.55,0,1.53,1.4,2.22,2.43,2.69,1.08,.5,1.49,.95,1.49,1.64,0,.65-.52,1.18-1.17,1.18-.02,0-.04,0-.05,0-1.15,0-2.03-1.19-2.42-2.41l-.53,.06c0,.8,.11,1.61,.31,2.38,.69,.42,1.49,.64,2.3,.63,1.58,0,3.29-.89,3.29-2.68,0-1.39-1-2.05-2.5-2.68-.92-.38-1.53-.83-1.53-1.54-.03-.61,.45-1.14,1.06-1.16,.02,0,.04,0,.06,0,1.04,0,1.57,.76,2,1.9l.54-.15Zm3.47-3.84c.63,0,1.13-.5,1.14-1.13,.02-.62-.48-1.14-1.1-1.15h-.02c-.63,0-1.14,.51-1.15,1.14,0,.63,.5,1.14,1.13,1.15Zm2.45,9.92v-.55c-1.18-.13-1.36-.24-1.36-1.52v-6.45c-1.08,.31-2.17,.54-3.28,.71v.5c1.02,.16,1.35,.24,1.35,1.43v3.81c0,1.31-.2,1.41-1.34,1.52v.55h4.63Zm16.62-9.92c.63,0,1.13-.51,1.14-1.13,.01-.62-.48-1.14-1.1-1.15h-.02c-.63,0-1.14,.51-1.15,1.14,0,.63,.5,1.14,1.13,1.15h0Zm2.45,9.92v-.55c-1.18-.13-1.36-.24-1.36-1.52v-6.45c-1.08,.31-2.17,.54-3.28,.71v.5c1.02,.16,1.35,.24,1.35,1.43v3.81c0,1.31-.21,1.41-1.34,1.52v.55h4.63Zm1.62-9.64v1.45h-1.01l-.35,.66v.21h1.37v5.19c-.14,1.13,.67,2.16,1.8,2.3,.15,.02,.3,.02,.45,0,.21,.01,.41-.04,.59-.14,.58-.27,1.14-.57,1.67-.9l-.23-.47c-.38,.19-.78,.31-1.2,.34-.42,0-1.08-.27-1.08-1.76v-4.57h2.06c.17-.25,.25-.56,.23-.86h-2.28v-2.52l-.26-.08c-.54,.45-1.12,.83-1.74,1.15h0Zm-19.07,0v1.45h-1.01l-.35,.66v.21h1.37v5.19c-.14,1.13,.66,2.16,1.8,2.3,.15,.02,.3,.02,.45,0,.21,0,.41-.04,.59-.14,.58-.27,1.13-.57,1.67-.9l-.23-.47c-.38,.19-.78,.3-1.2,.34-.43,0-1.08-.27-1.08-1.76v-4.57h2.06c.18-.25,.26-.56,.23-.86h-2.29v-2.52l-.26-.08c-.54,.45-1.12,.83-1.74,1.15h0Zm-31.89,9.64c.93-2.79,1.48-4.61,2.18-6.52,.32-.88,.49-1.01,1.4-1.11v-.55h-3.58v.55c.23,.02,.45,.06,.67,.11,.41,.12,.48,.39,.32,.93l-1.59,5.43h-.07l-1.5-5.4c-.15-.57-.09-.8,.12-.91,.25-.1,.51-.16,.78-.16v-.55h-4.38v.55c1.06,.11,.94,.21,1.34,1.19l2.13,6.44h2.18Zm-20.43-7.32c1.01,.19,1.37,.26,1.37,1.43v3.89c0,1.24-.22,1.31-1.44,1.46v.55h4.5v-.55c-.93-.11-1.13-.19-1.13-1.41v-4.48c.44-.4,.98-.67,1.56-.77,.89,0,1.67,.48,1.67,1.91v3.21c0,1.31-.11,1.42-1.06,1.54v.55h4.26v-.55c-1.03-.13-1.27-.19-1.27-1.41v-3.6c0-1.85-.86-2.96-2.36-2.96-.43,0-.86,.11-1.22,.35l-1.59,1.07v-1.45c-1.09,.31-2.19,.55-3.3,.73v.49Zm8.72,16.23c.63,0,1.15-.49,1.16-1.12,0-.63-.49-1.15-1.12-1.16-.63,0-1.15,.49-1.16,1.12,0,0,0,.02,0,.03,0,.62,.5,1.12,1.12,1.13Zm2.45,9.92v-.55c-1.18-.12-1.36-.24-1.36-1.52v-6.45c-1.08,.3-2.17,.54-3.27,.71v.5c1.02,.15,1.34,.24,1.34,1.43v3.81c0,1.31-.2,1.41-1.34,1.52v.55h4.64Zm-10.82-5.34c.12-1.38,.84-2.45,1.8-2.45s1.41,.96,1.41,2.04c0,.29-.11,.41-.43,.41h-2.78Zm4.71,.63c.25,.03,.48-.15,.51-.4,0-.04,0-.08,0-.12,.1-1.66-1.16-3.09-2.82-3.19-.13,0-.26,0-.39,0-1.03,0-2.02,.43-2.71,1.19-.88,.93-1.36,2.16-1.35,3.43-.1,2.12,1.52,3.91,3.64,4.02,.09,0,.18,0,.27,0,1.33-.11,2.55-.82,3.28-1.94l-.31-.44c-.58,.56-1.35,.88-2.16,.88-1.36,0-2.73-.79-2.73-3.28l4.78-.17Zm18.75-.63c.12-1.38,.84-2.45,1.8-2.45s1.41,.96,1.41,2.04c0,.29-.12,.41-.43,.41h-2.78Zm4.72,.63c.25,.03,.48-.15,.51-.4,0-.04,0-.08,0-.12,.1-1.66-1.16-3.09-2.82-3.19-.13,0-.26,0-.39,0-1.03,0-2.02,.43-2.72,1.19-.87,.93-1.36,2.16-1.35,3.43-.1,2.12,1.52,3.91,3.64,4.02,.09,0,.18,0,.27,0,1.33-.11,2.55-.82,3.28-1.94l-.31-.44c-.58,.56-1.35,.87-2.16,.88-1.36,0-2.73-.79-2.73-3.28l4.78-.17Zm-31.76,1.4c-.21,.68-.57,1.3-1.07,1.81-.53,.48-1.22,.73-1.93,.69-.5,.04-1.01-.03-1.48-.2-.36-.18-.44-.54-.44-1.48v-6.48c0-1.62,.21-1.71,1.67-1.84v-.63h-5.39v.63c1.49,.13,1.68,.24,1.68,1.84v6.5c0,1.6-.25,1.72-1.86,1.85v.63h8.77c.17-.54,.55-2.46,.69-3.16l-.64-.15Zm21.02,1.8c-.41,.3-.91,.47-1.42,.48-1.04,0-2.38-.99-2.38-3.26,0-2.8,1.5-3.39,2.15-3.39,.66-.08,1.31,.24,1.65,.82v5.35Zm3.43,.5l-.55-.06c-.74-.09-.94-.17-.94-1.19v-10.53c-1.12,.3-2.26,.52-3.42,.65v.53c1.25,.11,1.49,.2,1.49,1.32v1.99c-.4-.09-.81-.14-1.22-.15-2.45-.17-4.57,1.68-4.74,4.13-.01,.17-.01,.35,0,.52-.18,1.98,1.28,3.74,3.26,3.93,.07,0,.13,.01,.2,.01,.48,.03,.95-.08,1.37-.32l1.13-.71v1.13c.7-.21,2.41-.57,3.43-.73v-.53Zm8.64-6.3c1.01,.19,1.33,.26,1.33,1.42v3.89c0,1.24-.18,1.31-1.4,1.46v.55h4.42v-.55c-.93-.11-1.09-.19-1.09-1.41v-4.48c.44-.4,.98-.67,1.57-.77,.89,0,1.67,.48,1.67,1.92v3.21c0,1.32-.11,1.42-1.07,1.54v.55h4.22v-.55c-1.03-.13-1.22-.19-1.22-1.41v-3.6c0-1.85-.91-2.96-2.41-2.96-.43,0-.85,.11-1.21,.35l-1.55,1.07v-1.45c-1.07,.31-2.16,.55-3.26,.73v.5Z"/><path class="cls-2" d="M65.8,56.53c-.07,.36-.3,1.42-.4,1.75h-5.05v-.32c.92-.07,1.02-.14,1.02-1.08v-4.37c0-.94-.08-.99-.97-1.07v-.32h2.96v.32c-.86,.07-.97,.12-.97,1.07v4.33c0,.58,.06,.79,.26,.9,.32,.12,.67,.16,1.01,.13,.58,0,.96-.05,1.21-.34,.26-.32,.46-.69,.57-1.09l.34,.08Z"/><path class="cls-2" d="M70.46,57.32c-.41,.62-1.09,1.02-1.83,1.09-1.2,0-2.18-.98-2.17-2.18,0-.05,0-.11,0-.16,0-.72,.25-1.41,.74-1.94,.41-.48,1-.77,1.63-.8,.92,.02,1.66,.77,1.67,1.69,0,.22-.04,.32-.26,.36-.18,.02-1.55,.13-2.83,.18,.02,1.44,.85,2.06,1.62,2.06,.47-.01,.92-.2,1.25-.54l.18,.24Zm-2.98-2.22c.58,0,1.15-.01,1.76-.03,.19,0,.25-.05,.25-.22,.06-.55-.33-1.05-.88-1.11h-.03c-.48,0-.96,.47-1.1,1.36Z"/><path class="cls-2" d="M71.11,58.28v-.3c.68-.07,.76-.13,.76-.88v-2.26c0-.69-.04-.74-.67-.84v-.28c.56-.08,1.11-.22,1.64-.42v3.79c0,.75,.07,.81,.77,.88v.3h-2.5Zm.58-6.46c0-.33,.26-.61,.6-.62h0c.33,.01,.6,.29,.58,.63-.01,.32-.27,.58-.59,.58-.33,0-.59-.27-.6-.59Z"/><path class="cls-2" d="M79.51,57.99c-.61,.1-1.21,.24-1.79,.42v-.7l-.67,.41c-.24,.17-.51,.27-.8,.3-1.22-.08-2.14-1.13-2.07-2.35,.05-1.54,1.32-2.75,2.86-2.73,.23,0,.46,.04,.68,.11v-1.52c0-.69-.07-.73-.83-.79v-.27c.61-.08,1.21-.21,1.79-.39v6.52c0,.58,.06,.64,.48,.68l.34,.03v.29Zm-1.79-3.67c-.24-.36-.64-.57-1.07-.57-.47,0-1.39,.41-1.39,2.01,0,1.32,.8,1.94,1.47,1.94,.35-.01,.69-.13,.98-.34v-3.04Z"/><path class="cls-2" d="M84,57.32c-.41,.62-1.09,1.02-1.83,1.09-1.2,0-2.18-.98-2.17-2.19,0-.05,0-.1,0-.16,0-.72,.25-1.41,.74-1.94,.41-.48,1-.77,1.63-.8,.92,.02,1.66,.77,1.67,1.69,0,.22-.04,.32-.26,.36-.18,.02-1.55,.13-2.83,.18,.02,1.44,.85,2.06,1.62,2.06,.47-.01,.92-.2,1.26-.54l.18,.24Zm-2.98-2.22c.58,0,1.16-.01,1.76-.03,.19,0,.25-.05,.25-.22,.06-.55-.33-1.04-.88-1.11h-.04c-.48,0-.96,.47-1.1,1.36Z"/><path class="cls-2" d="M87.77,58.28v-.3c.62-.07,.69-.14,.69-.91v-1.84c0-.77-.29-1.22-.96-1.22-.43,.04-.83,.23-1.13,.53v2.6c0,.74,.07,.78,.68,.85v.3h-2.43v-.3c.72-.08,.78-.13,.78-.86v-2.28c0-.69-.07-.73-.65-.84v-.26c.55-.09,1.09-.25,1.62-.45v.87c.22-.17,.45-.33,.73-.51,.26-.2,.57-.32,.9-.33,.88,0,1.42,.62,1.42,1.68v2.12c0,.74,.06,.77,.69,.85v.3h-2.34Z"/><path class="cls-2" d="M100.1,51.45c-.65,.05-.9,.21-.96,.65-.05,.58-.08,1.16-.07,1.74v.97c.11,1.03-.19,2.06-.82,2.87-.53,.51-1.24,.79-1.98,.77-.64,.02-1.27-.16-1.79-.54-.72-.66-1.08-1.63-.96-2.61v-2.72c0-1-.1-1.04-.96-1.13v-.32h2.93v.32c-.85,.07-.94,.13-.94,1.13v2.48c0,1.76,.68,2.76,2.01,2.76,1.53,0,2.04-1.27,2.04-3.09v-.89c.01-.59-.01-1.18-.08-1.76-.06-.42-.3-.57-1.07-.63v-.32h2.64v.32Z"/><path class="cls-2" d="M103.32,58.28v-.3c.62-.07,.69-.14,.69-.91v-1.84c0-.77-.29-1.22-.96-1.22-.43,.04-.83,.23-1.13,.53v2.6c0,.74,.07,.78,.68,.85v.3h-2.43v-.3c.72-.08,.78-.13,.78-.86v-2.28c0-.69-.07-.73-.65-.84v-.26c.55-.09,1.09-.25,1.62-.45v.87c.22-.17,.45-.33,.73-.51,.26-.2,.57-.32,.9-.33,.88,0,1.42,.62,1.42,1.68v2.12c0,.74,.06,.77,.69,.85v.3h-2.34Z"/><path class="cls-2" d="M106.25,58.28v-.3c.68-.07,.76-.13,.76-.88v-2.26c0-.69-.04-.74-.67-.84v-.28c.56-.08,1.11-.22,1.64-.42v3.79c0,.75,.07,.81,.77,.88v.3h-2.5Zm.58-6.46c0-.33,.26-.61,.6-.62h0c.33,.01,.59,.29,.58,.63-.01,.32-.27,.58-.59,.58-.33,0-.59-.27-.59-.59Z"/><path class="cls-2" d="M114.11,53.76c-.57,.08-.67,.19-.96,.81-.38,.84-.95,2.19-1.56,3.83h-.32c-.51-1.33-1.01-2.58-1.53-3.86-.25-.61-.34-.69-.93-.78v-.3h2.34v.3c-.58,.08-.61,.17-.44,.62,.28,.77,.71,1.91,1,2.64,.35-.84,.72-1.84,.95-2.55,.16-.51,.1-.63-.52-.7v-.3h1.96v.3Z"/><path class="cls-2" d="M118.26,57.32c-.41,.62-1.09,1.02-1.83,1.09-1.2,0-2.18-.98-2.17-2.18,0-.05,0-.11,0-.16,0-.72,.25-1.41,.74-1.94,.41-.48,1-.77,1.63-.8,.92,.02,1.66,.77,1.67,1.69,0,.22-.04,.32-.26,.36-.18,.02-1.55,.13-2.83,.18,.02,1.44,.85,2.06,1.62,2.06,.47-.01,.92-.2,1.25-.54l.18,.24Zm-2.98-2.22c.58,0,1.15-.01,1.76-.03,.19,0,.25-.05,.25-.22,.06-.55-.33-1.05-.88-1.11h-.03c-.48,0-.96,.47-1.1,1.36Z"/><path class="cls-2" d="M120.66,54.5c.34-.58,.8-1.17,1.31-1.17,.34-.02,.63,.23,.66,.57,0,.26-.15,.49-.38,.59-.1,.05-.22,.04-.3-.03-.12-.14-.3-.22-.48-.22-.27,0-.59,.29-.83,.87v2.02c0,.72,.05,.78,.9,.85v.3h-2.62v-.3c.67-.07,.75-.13,.75-.85v-2.3c0-.7-.06-.74-.66-.84v-.25c.56-.09,1.1-.23,1.63-.44v1.19h.02Z"/><path class="cls-2" d="M125.92,54.78c-.22-.65-.6-1.09-1.13-1.09-.38,0-.68,.31-.68,.69v.04c0,.46,.4,.71,.9,.93,.85,.35,1.41,.74,1.41,1.52-.06,.92-.86,1.61-1.78,1.55-.02,0-.04,0-.06,0-.46,0-.91-.12-1.29-.37-.11-.43-.18-.88-.19-1.33l.31-.04c.2,.71,.69,1.38,1.37,1.38,.4,0,.74-.31,.75-.72,0,0,0-.01,0-.02,0-.46-.29-.71-.86-.99-.64-.3-1.4-.67-1.4-1.53,.05-.85,.77-1.51,1.63-1.46,.03,0,.05,0,.08,0,.34,0,.69,.06,1,.2,.11,.39,.19,.78,.24,1.18l-.3,.08Z"/><path class="cls-2" d="M127.07,58.28v-.3c.68-.07,.76-.13,.76-.88v-2.26c0-.69-.04-.74-.67-.84v-.28c.56-.08,1.11-.22,1.64-.42v3.79c0,.75,.07,.81,.77,.88v.3h-2.5Zm.58-6.46c0-.33,.26-.61,.6-.62h0c.33,.01,.6,.29,.58,.63-.01,.32-.27,.58-.59,.58-.33,0-.59-.27-.6-.59h0Z"/><path class="cls-2" d="M132.17,58.27c-.14,.08-.29,.13-.45,.14-.73,0-1.13-.43-1.13-1.32v-3.18h-.75l-.04-.12,.3-.33h.49v-.8l.81-.75,.14,.03v1.52h1.22c.11,.14,.08,.34-.06,.45h-1.16v2.81c0,.88,.38,1.03,.65,1.03,.23,0,.45-.06,.65-.17l.1,.3-.77,.39Z"/><path class="cls-2" d="M138.3,53.75c-.57,.1-.67,.19-.97,.8-.28,.58-.62,1.5-1.37,3.27-.43,.97-.81,1.97-1.13,2.99-.03,.17-.19,.3-.36,.28-.32,0-.6-.24-.65-.56,0-.18,.1-.27,.29-.41,.37-.22,.66-.55,.84-.95,.12-.22,.23-.45,.32-.69,.05-.17,.04-.35-.02-.51-.47-1.31-.98-2.68-1.29-3.42-.23-.57-.34-.71-.92-.8v-.29h2.32v.29c-.51,.09-.57,.2-.43,.59l.98,2.71c.3-.74,.75-1.99,.97-2.67,.13-.41,.05-.53-.56-.63v-.29h1.99v.29Z"/><path class="cls-2" d="M145.77,56.53c-.07,.36-.3,1.42-.4,1.75h-5.05v-.32c.92-.07,1.02-.14,1.02-1.08v-4.37c0-.94-.08-.99-.97-1.07v-.32h2.96v.32c-.86,.07-.97,.12-.97,1.07v4.33c0,.58,.06,.79,.27,.9,.32,.12,.67,.16,1.01,.13,.58,0,.96-.05,1.21-.34,.26-.32,.46-.69,.57-1.09l.34,.08Z"/><path class="cls-2" d="M146.33,58.28v-.3c.68-.07,.76-.13,.76-.88v-2.26c0-.69-.04-.74-.67-.84v-.28c.56-.08,1.11-.22,1.64-.42v3.79c0,.75,.07,.81,.77,.88v.3h-2.5Zm.58-6.46c0-.33,.26-.61,.6-.62h0c.33,.01,.6,.29,.58,.63-.01,.32-.27,.58-.59,.58-.33,0-.59-.27-.6-.59h0Z"/><path class="cls-2" d="M151.51,53.46c.15-.08,.32-.13,.49-.13,1.24,.04,2.22,1.07,2.19,2.32h0c0,1.52-1.22,2.76-2.73,2.77-.02,0-.03,0-.05,0-.58,0-1.15-.14-1.67-.4v-6.08c0-.68-.03-.75-.71-.81v-.26c.57-.08,1.13-.21,1.68-.39v3.33l.8-.34Zm-.8,3.55c0,.13,.02,.26,.06,.39,.17,.36,.53,.59,.92,.58,.87,.01,1.43-.76,1.43-2.05s-.75-1.97-1.63-1.97c-.27,0-.54,.06-.78,.18v2.87Z"/><path class="cls-2" d="M156.56,54.5c.34-.58,.8-1.17,1.31-1.17,.34-.02,.63,.23,.66,.57,0,.26-.15,.49-.38,.59-.1,.05-.22,.04-.3-.03-.12-.14-.3-.22-.48-.22-.26,0-.59,.29-.82,.87v2.02c0,.72,.05,.78,.9,.85v.3h-2.62v-.3c.67-.07,.75-.13,.75-.85v-2.3c0-.7-.05-.74-.66-.84v-.25c.56-.09,1.1-.23,1.63-.44v1.19h.02Z"/><path class="cls-2" d="M162.45,58.41c-.2,0-.39-.09-.54-.22-.13-.13-.22-.29-.27-.47-.37,.32-.81,.55-1.28,.69-.75,0-1.35-.61-1.35-1.35-.01-.53,.36-.98,.88-1.08,.6-.18,1.17-.42,1.72-.73v-.22c0-.77-.35-1.21-.88-1.21-.18,0-.36,.07-.47,.21-.16,.22-.27,.47-.32,.74-.03,.17-.18,.29-.35,.28-.27-.02-.48-.22-.52-.48,0-.18,.14-.3,.36-.46,.51-.36,1.08-.62,1.68-.77,.33,0,.66,.1,.92,.3,.39,.35,.58,.86,.52,1.38v2c0,.5,.19,.65,.37,.65,.14,0,.27-.05,.4-.11l.11,.3-.99,.57Zm-.84-2.77c-.23,.12-.68,.33-.93,.44-.41,.2-.64,.4-.64,.8-.03,.43,.3,.81,.73,.83h.03c.3-.02,.58-.15,.8-.35v-1.73Z"/><path class="cls-2" d="M165.5,54.5c.34-.58,.8-1.17,1.31-1.17,.34-.02,.63,.23,.66,.57,0,.26-.15,.49-.38,.59-.1,.05-.22,.04-.3-.03-.12-.14-.3-.22-.48-.22-.27,0-.59,.29-.83,.87v2.02c0,.72,.05,.78,.9,.85v.3h-2.62v-.3c.67-.07,.75-.13,.75-.85v-2.3c0-.7-.06-.74-.66-.84v-.25c.56-.09,1.1-.23,1.63-.44v1.19h.02Z"/><path class="cls-2" d="M167.95,58.28v-.3c.68-.07,.76-.13,.76-.88v-2.26c0-.69-.04-.74-.67-.84v-.28c.56-.08,1.11-.22,1.64-.42v3.79c0,.75,.07,.81,.77,.88v.3h-2.5Zm.58-6.46c0-.33,.26-.61,.6-.62h0c.33,.01,.59,.29,.58,.63-.01,.32-.27,.58-.59,.58-.33,0-.59-.27-.59-.59h0Z"/><path class="cls-2" d="M175.01,57.32c-.41,.62-1.09,1.02-1.83,1.09-1.2,0-2.18-.98-2.17-2.19,0-.05,0-.1,0-.16,0-.72,.25-1.41,.74-1.94,.41-.48,1-.77,1.63-.8,.92,.02,1.66,.77,1.67,1.69,0,.22-.04,.32-.26,.36-.18,.02-1.55,.13-2.83,.18,.02,1.44,.85,2.06,1.62,2.06,.47-.01,.92-.2,1.26-.54l.18,.24Zm-2.98-2.22c.58,0,1.16-.01,1.76-.03,.19,0,.25-.05,.25-.22,.06-.55-.33-1.04-.88-1.11h-.04c-.48,0-.96,.47-1.1,1.36Z"/><path class="cls-2" d="M178.57,54.78c-.22-.65-.59-1.09-1.13-1.09-.38,0-.68,.31-.68,.68,0,.01,0,.03,0,.04,0,.46,.39,.71,.9,.93,.85,.35,1.41,.74,1.41,1.52-.07,.92-.86,1.61-1.78,1.55h-.06c-.46,0-.91-.13-1.29-.38-.11-.43-.18-.88-.19-1.33l.31-.04c.2,.71,.69,1.38,1.36,1.38,.4,0,.74-.31,.75-.72,0,0,0-.01,0-.02,0-.46-.29-.71-.86-.99-.64-.3-1.4-.67-1.4-1.53,.05-.85,.77-1.5,1.62-1.46,.03,0,.05,0,.08,0,.34,0,.68,.06,1,.2,.11,.39,.19,.78,.24,1.18l-.3,.08Z"/></svg>